<svg width="418" height="378" viewBox="0 0 418 378" fill="none" xmlns="http://www.w3.org/2000/svg">
<path d="M17.1 122.35C24.49 141.24 41.9 178.2 79.77 210.39C124.4 248.33 171.89 257.9 192.03 260.78C209.08 219.64 204.82 173.52 179.36 141.64C144.39 97.83 73.84 86.49 17.1 122.35Z" fill="url(#paint0_linear_1_2636)"/>
<path d="M0.0799561 222.21C7.34996 233.66 28.85 264.19 70.28 281.44C107.71 297.02 140.95 293.26 154.6 290.93C156.82 249.75 132.13 212.28 94.98 199.16C62.35 187.63 25.17 196.67 0.0799561 222.21Z" fill="url(#paint1_linear_1_2636)"/>
<path d="M75.91 376.95C33.27 372.35 -39.51 155.13 108.56 56.84C246.87 -34.97 427.21 90.55 417.33 139.75C408.35 184.46 306.55 131.15 206.57 200.43C106.46 269.81 119.17 381.62 75.91 376.95Z" fill="url(#paint2_linear_1_2636)"/>
<path opacity="0.3" d="M294.22 165.27C308.38 162.87 321.92 161.79 334.5 161.25C341.59 124.64 331.08 69.4499 318.62 45.4599C303.04 38.8099 286.25 33.3199 268.75 29.5699C277.24 74.8099 285.73 120.04 294.22 165.27Z" fill="#AA4F19"/>
<path opacity="0.2" d="M266.44 111.76C263.38 82.96 277.51 55.73 299.39 38.1C241.34 18.23 170.71 15.59 108.56 56.85C47.1801 97.59 23.77 158.77 20.41 216.77C22.49 216.48 24.57 216.24 26.67 216.11C76.14 213.08 115.25 251.27 120.32 298.95C120.93 304.66 120.84 310.31 120.17 315.84C134.91 279.9 156.79 234.92 206.57 200.43C235.1 180.66 263.78 170.88 290.41 165.95C277.29 151.42 268.65 132.49 266.44 111.76Z" fill="#AA4F19"/>
<path d="M18.74 229.49C23.67 227.4 57.81 213.6 93.6 231.61C124.29 247.06 135.03 275.26 137.22 281.44C143.32 277.98 149.43 274.52 155.53 271.05C143.1 248.6 130.67 226.14 118.23 203.69C89.17 202.52 60.11 201.36 31.04 200.19C23.88 203.7 16.7299 207.21 9.56995 210.72C12.6399 216.97 15.69 223.23 18.74 229.49Z" fill="url(#paint3_linear_1_2636)"/>
<path d="M0.319946 223.25C5.88995 220.26 45.35 199.92 90.39 217.73C139.85 237.28 153.3 285.91 154.6 290.94C160.42 276.35 178.12 237.53 220.91 208.91C261.59 181.7 301.89 179.11 317.78 178.92C322.56 161.77 328.37 132.39 323.51 96.4499C319.48 66.6399 309.63 43.5699 301.95 28.9299C288.49 24.2999 201.72 -3.9301 114.67 45.3799C14.18 102.3 1.35995 212.7 0.319946 223.25Z" fill="url(#paint4_linear_1_2636)"/>
<path opacity="0.3" d="M148.74 29.7699C176.32 83.5099 203.9 137.25 231.47 190.99C238.66 191.31 245.85 191.63 253.03 191.95C262.53 188.12 271.61 185.4 279.93 183.49C281.1 104.48 242.31 36.2899 215.51 16.8999C195.01 17.7299 172.24 21.3499 148.74 29.7699Z" fill="#AA4F19"/>
<path opacity="0.2" d="M206.23 102.32C192.69 76.25 178.04 50.77 164.19 24.86C148.03 29.33 131.36 35.91 114.66 45.37C79.64 65.21 55.3 91.54 38.37 117.88C59.63 112.61 77.07 116.44 110.16 143.48C144.75 172.88 151.87 205.67 153.49 220.89C155.23 237.29 151.96 253.23 145.09 267.51C151.45 279.34 154.07 288.85 154.6 290.93C160.42 276.34 178.12 237.52 220.91 208.9C227.2 204.69 233.48 201.13 239.66 198.02C231.16 165.27 220.56 133.32 206.23 102.32Z" fill="#AA4F19"/>
<path d="M26.6 131.31C36.64 130.12 82.75 125.75 125.45 157.47C171.97 192.02 179.08 243.14 180.16 251.96C185.85 247.44 191.54 242.91 197.23 238.39C181.73 196.38 166.23 154.38 150.73 112.38C110.55 112.26 70.3699 112.13 30.2 112.01C28.99 118.44 27.8 124.87 26.6 131.31Z" fill="url(#paint5_linear_1_2636)"/>
<path d="M17.1 122.35C28.79 119.99 76.3099 111.8 122.69 140.23C186.86 179.58 191.71 254.02 192.03 260.77C195.88 251.37 206.07 230.17 229.12 213.75C246.25 201.55 263.09 197.26 272.75 195.56C272.6 173.5 269.57 136.15 251.63 94.2399C234 53.0699 209.65 25.4099 193.97 10.0699C172.55 12.9099 135.01 20.7199 95.3101 45.3499C53.2701 71.4499 28.97 103.9 17.1 122.35Z" fill="url(#paint6_linear_1_2636)"/>
<path opacity="0.4" d="M69.28 77.0299C55.2 89.4699 45.13 102.44 40.41 110.25C56.35 110.07 72.01 111.9 85.79 115.44C91.93 107.14 99.5 99.3299 107.36 92.3699C95.33 85.7499 83.02 80.7199 69.28 77.0299Z" fill="#FFD044"/>
<path opacity="0.3" d="M182.89 11.8199C168.52 14.3899 149.94 19.0299 129.43 27.7199C156.42 60.8799 167.73 84.1699 195.48 117.81C208.06 128.54 220.2 133.48 223.68 126.3C240.67 91.2599 198.86 28.2699 182.89 11.8199Z" fill="#AA4F19"/>
<path d="M55.41 55.72L53.6801 78.01L65.95 66.9C65.95 66.9 110.97 81.64 140.13 107.31C176.87 139.65 198.51 159.63 217.23 144.94L150.59 42.69C150.58 42.68 85.47 46.22 55.41 55.72Z" fill="url(#paint7_linear_1_2636)"/>
<path d="M55.41 55.7199C55.41 55.7199 111.28 63.11 155.36 105.92C195.22 144.63 209.79 148.54 219.84 143.42C238.68 133.82 213.43 38.8299 156.11 0.439941C156.11 0.439941 96.5 13.0999 55.41 55.7199Z" fill="url(#paint8_linear_1_2636)"/>
<path opacity="0.4" d="M30.59 232.78C32.23 272.55 42.9 301.38 51.2 301.13C61.01 300.84 62.86 272.19 70.45 231.55C64.61 229.25 44.07 228.46 30.59 232.78Z" fill="#FFD044"/>
<path opacity="0.4" d="M37.4301 139.29C27.0801 163.28 22.14 186.46 21.04 203.95C33.61 200.79 53.47 198.82 65.63 202.81C68.21 184.01 72.97 166.47 82.36 143.97C68.28 138.6 52.6601 138.11 37.4301 139.29Z" fill="#FFD044"/>
<path opacity="0.4" d="M164.17 39.5099C171.31 36.1299 175.37 34.9199 175.37 34.9199L152.04 11.6499C152.04 11.6499 147.32 12.8699 139.98 15.5599C148.32 23.2699 156.37 31.2599 164.17 39.5099Z" fill="#FFD044"/>
<path opacity="0.4" d="M133.85 17.9299C119.58 23.7199 99.5 33.7899 83.34 49.3999C82.83 49.8899 82.21 50.2199 81.64 50.6299C89.8 52.9199 97.93 55.1299 105.76 58.7099C111.12 61.1599 116.28 63.9799 121.3 67.0399C136.45 54.9399 149.3 47.1399 158.69 42.2399C150.7 33.8599 142.43 25.7399 133.85 17.9299Z" fill="#FFD044"/>
<path d="M77.3101 94.9399L68.65 110.29L82.12 118.06C84.78 113.36 87.59 108.86 90.26 104.02L77.3101 94.9399Z" fill="#FFE7B8"/>
<path d="M49.47 134.32L40.8101 149.67L54.28 157.44C56.94 152.74 59.75 148.24 62.42 143.4L49.47 134.32Z" fill="#FFE7B8"/>
<path d="M176.17 40.59L172.97 49.46L181.8 51.54L184.15 42.2L176.17 40.59Z" fill="#FFE7B8"/>
<path d="M82.47 142.6L79.27 151.47L88.1 153.55L90.45 144.21L82.47 142.6Z" fill="#FFE7B8"/>
<path d="M109.08 39.0899L114.81 45.3899L120.19 39.2199L113.72 33.4099L109.08 39.0899Z" fill="#FFE7B8"/>
<path d="M76.08 73.95L69.71 80.9099L77.0601 86.2199L82.8101 78.4999L76.08 73.95Z" fill="#FFE7B8"/>
<path d="M105.54 97.83L102.97 105.75L110.81 107.33L112.56 99.05L105.54 97.83Z" fill="#FFE7B8"/>
<path d="M146.37 18.34L137.71 33.69L151.18 41.46C153.84 36.76 156.65 32.26 159.32 27.42L146.37 18.34Z" fill="#FFE7B8"/>
<path d="M121 57.58L114.63 64.54L121.98 69.85L127.73 62.13L121 57.58Z" fill="#FFE7B8"/>
<path d="M142.61 50.0499L137.56 58.0099L145.73 61.95L149.98 53.3499L142.61 50.0499Z" fill="#FFE7B8"/>
<path d="M42.83 181.76L39.92 190.73L48.8101 192.52L50.79 183.14L42.83 181.76Z" fill="#FFE7B8"/>
<path d="M66.77 168.54L76.2 168.44L75.0601 159.44L65.49 160.5L66.77 168.54Z" fill="#FFE7B8"/>
<defs>
<linearGradient id="paint0_linear_1_2636" x1="106.018" y1="163.685" x2="234.41" y2="222.597" gradientUnits="userSpaceOnUse">
<stop stop-color="#FFCE6E"/>
<stop offset="1" stop-color="#FBB454"/>
</linearGradient>
<linearGradient id="paint1_linear_1_2636" x1="72.9616" y1="235.722" x2="201.355" y2="294.634" gradientUnits="userSpaceOnUse">
<stop stop-color="#FFCE6E"/>
<stop offset="1" stop-color="#FBB454"/>
</linearGradient>
<linearGradient id="paint2_linear_1_2636" x1="69.9894" y1="263.114" x2="368.516" y2="11.62" gradientUnits="userSpaceOnUse">
<stop stop-color="#FFA324"/>
<stop offset="1" stop-color="#CC6B28"/>
</linearGradient>
<linearGradient id="paint3_linear_1_2636" x1="79.4375" y1="221.61" x2="207.832" y2="280.522" gradientUnits="userSpaceOnUse">
<stop stop-color="#FFCE6E"/>
<stop offset="1" stop-color="#FBB454"/>
</linearGradient>
<linearGradient id="paint4_linear_1_2636" x1="101.509" y1="202.455" x2="347.806" y2="4.63758" gradientUnits="userSpaceOnUse">
<stop stop-color="#FFA324"/>
<stop offset="1" stop-color="#CC6B28"/>
</linearGradient>
<linearGradient id="paint5_linear_1_2636" x1="109.35" y1="156.424" x2="237.743" y2="215.336" gradientUnits="userSpaceOnUse">
<stop stop-color="#FFCE6E"/>
<stop offset="1" stop-color="#FBB454"/>
</linearGradient>
<linearGradient id="paint6_linear_1_2636" x1="82.4198" y1="154.071" x2="344.184" y2="109.755" gradientUnits="userSpaceOnUse">
<stop stop-color="#FFA324"/>
<stop offset="1" stop-color="#CC6B28"/>
</linearGradient>
<linearGradient id="paint7_linear_1_2636" x1="148.536" y1="84.4565" x2="276.93" y2="143.368" gradientUnits="userSpaceOnUse">
<stop stop-color="#FFCE6E"/>
<stop offset="1" stop-color="#FBB454"/>
</linearGradient>
<linearGradient id="paint8_linear_1_2636" x1="100.578" y1="6.27603" x2="240.264" y2="242.344" gradientUnits="userSpaceOnUse">
<stop stop-color="#FFA324"/>
<stop offset="0.2722" stop-color="#F69925"/>
<stop offset="0.7377" stop-color="#DD7D27"/>
<stop offset="1" stop-color="#CC6B28"/>
</linearGradient>
</defs>
</svg>
