<svg width="368" height="347" viewBox="0 0 368 347" fill="none" xmlns="http://www.w3.org/2000/svg">
<path d="M73.21 303.83C52.59 272.02 31.97 240.22 11.35 208.41C10.08 212.72 -7.48993 275.16 24.5301 315.07C39.7601 334.06 59.1801 340.71 59.1801 340.71C75.4801 347.25 92.2801 348 107.05 344.04C94.7001 331.46 83.94 318.54 73.21 303.83Z" fill="url(#paint0_linear_1_2155)"/>
<path d="M11.0601 289.96C14.0601 298.62 18.4101 307.15 24.5301 315.07C39.7601 334.06 59.1801 340.71 59.1801 340.71C75.4801 347.25 92.2801 348 107.05 344.04C104.76 341.71 102.54 339.35 100.34 336.99C96.47 337.93 92.4101 338.58 88.1701 338.91C55.2501 341.46 24.4801 313.53 15.0401 278.13C12.6701 269.23 10.01 239.41 18.87 220.24L11.34 208.41C10.33 211.88 -1.27992 253.17 11.0601 289.96Z" fill="#FFAF57"/>
<path d="M145.84 206.19C133.66 171.49 86.26 98.0601 15.25 163.7C-1.34 179.61 -4.92001 224.91 12.37 259.07C40.96 315.56 97.5801 323.39 108.43 320.82C121.14 317.8 123.24 315.47 131.95 304.64C152.75 278.73 156.22 235.8 145.84 206.19Z" fill="url(#paint1_linear_1_2155)"/>
<path d="M45.9499 143.18C6.12989 164.24 0.809882 222.23 21.4399 259.33C38.4299 289.9 77.41 314.15 112.03 303.43C155.51 289.96 176.32 226.22 152.77 182.4C133.36 146.32 83.6199 123.26 45.9499 143.18Z" fill="url(#paint2_radial_1_2155)"/>
<path opacity="0.3" d="M42.97 153.34C10.21 173.61 9.52996 225.28 29.44 257.07C46.48 284.28 83.27 304.34 110.87 293.31C148.44 278.3 161.95 208.5 129.95 171.58C110.09 148.67 70.75 136.15 42.97 153.34Z" fill="#FBAF9F"/>
<path d="M88.03 197.1C93.02 199.63 116 167.06 111.97 162.85C103.32 153.8 61.9999 139.74 36.6199 168.95C11.2399 198.17 25.84 244.91 43.52 255.25C52.27 260.36 78.0399 228.56 74.6099 224.73C71.6899 221.47 51.6299 229.08 46.4699 224.28C39.4699 217.77 50.11 201.23 61.91 186.27C72.65 172.65 82.5999 167.57 84.4799 169.22C90.6199 174.62 80.19 193.13 88.03 197.1Z" fill="#E52E14"/>
<path d="M54.64 183.87C55.97 182.5 55.23 179.46 53.69 177.74C52.08 175.94 48.92 174.81 47.35 176.19C45.87 177.49 46.35 180.54 47.74 182.31C49.47 184.51 53.16 185.39 54.64 183.87Z" fill="#F79421"/>
<path d="M66.2099 171.87C67.6999 171.24 68.12 168.65 67.49 166.83C66.83 164.92 64.7399 163.05 63.0699 163.61C61.4899 164.14 60.86 166.65 61.36 168.46C61.98 170.71 64.5599 172.57 66.2099 171.87Z" fill="#F79421"/>
<path d="M45.5899 197.5C46.5199 195.83 45 193.09 43.06 191.83C41.03 190.51 37.68 190.26 36.53 192C35.44 193.64 36.71 196.46 38.52 197.8C40.77 199.47 44.5599 199.35 45.5899 197.5Z" fill="#F79421"/>
<path d="M39.7299 215.3C40.0699 213.42 37.75 211.31 35.51 210.75C33.17 210.15 29.9099 210.99 29.3799 213.01C28.8799 214.92 30.9899 217.18 33.1299 217.86C35.7999 218.72 39.3499 217.39 39.7299 215.3Z" fill="#F79421"/>
<path d="M98.38 215.43C118.68 226.9 129.8 244.87 134.38 252.26C142.84 265.94 146.94 278.78 149.05 287.59C141.22 292.55 122.28 302.98 97.35 301.34C91.34 300.94 79.97 300.08 69.08 293.86C38.67 276.49 38.14 232.23 38.15 228.42L17.9 208.32C25.83 205.77 65.71 196.96 98.38 215.43Z" fill="url(#paint3_linear_1_2155)"/>
<path opacity="0.5" d="M101.99 281.21C93.2 266.79 82.7001 253.58 70.7901 241.76C69.3901 231.68 65.79 222.39 59.98 214.02C59.11 212.77 57.1401 214.09 58.0101 215.34C63.0101 222.54 66.3101 230.38 67.9201 238.9C60.2801 231.6 52.09 224.87 43.38 218.77C42.14 217.9 40.5701 219.67 41.8101 220.55C55.2301 229.95 67.3801 240.88 78.1601 253.05C68.6001 256.69 58.9701 255.48 50.0101 250.35C48.6801 249.59 47.63 251.71 48.95 252.47C58.67 258.04 69.49 259.28 79.87 254.97C85.37 261.34 90.48 268.04 95.19 275.07C84.07 279.41 72.89 279.21 61.72 274.69C60.31 274.12 59.2401 276.23 60.6601 276.81C72.5501 281.62 84.6401 281.91 96.5101 277.11C97.6901 278.91 98.8901 280.7 100.02 282.54C100.82 283.84 102.78 282.51 101.99 281.21Z" fill="#367539"/>
<path d="M103.15 136.04C62.29 162.32 60.95 204.12 78.14 235.72C92.49 262.11 128.99 294.08 179.39 259.3C212.15 236.69 216.9 189.58 195.99 158.34C176.04 128.54 135.54 115.2 103.15 136.04Z" fill="url(#paint4_linear_1_2155)"/>
<path d="M106.34 129.26C72.6099 149.78 66.58 196.93 86.06 228.76C106.01 261.37 152.17 277.03 185.72 255.14C219.06 233.38 223.23 185.42 202.32 154.18C182.37 124.39 139.24 109.24 106.34 129.26Z" fill="#F0E6D4"/>
<path d="M231.05 133.9C218.87 99.2 175.86 29.08 101.56 90.69C84.9701 106.6 83.39 142.77 99.91 183.15C123.89 241.75 173.7 252.91 184.55 250.33C197.26 247.31 208.46 243.18 217.16 232.34C237.96 206.44 241.44 163.51 231.05 133.9Z" fill="url(#paint5_linear_1_2155)"/>
<path d="M132.39 72.5001C94.4001 93.4201 88.82 150.3 110.46 187.06C131.2 222.28 180.95 245.8 218.04 224.46C255.41 202.96 259.7 147.54 239.2 111.72C218.79 76.0401 169.42 52.1101 132.39 72.5001Z" fill="url(#paint6_radial_1_2155)"/>
<path opacity="0.3" d="M133.24 81.97C100.78 100.78 96.1701 153.54 121.91 181.91C138.92 200.66 169.49 209.1 192.29 197.55C226.41 180.26 233.9 122.89 205.82 93.82C188.04 75.41 156.27 68.62 133.24 81.97Z" fill="#FBAF9F"/>
<path d="M153.48 123.46C156.85 121.22 146.46 87.4701 142.29 87.7801C133.34 88.4501 107.61 109.9 113.89 146.73C120.17 183.55 156.39 199.86 169.92 193.38C176.61 190.18 167.1 154.76 163.41 154.87C160.27 154.97 161.36 169.49 156.37 170.26C149.6 171.31 143.72 156.39 137.82 139.06C132.01 122.02 133.07 105.94 138.04 104.73C142.16 103.74 148.18 126.98 153.48 123.46Z" fill="#E52E14"/>
<path d="M165.14 117.78C161.71 118.6 150.98 86.56 153.03 83.96C157.4 78.44 198.01 83.76 211.07 121.18C224.13 158.6 195.94 185.26 186.6 188.25C180.64 190.16 172.46 156.51 174.09 153.47C175.73 150.43 187.44 167.22 190.31 166.06C194.33 164.43 193.53 142 190.05 127.83C184.97 107.16 168.27 97.69 166.52 99.8C164.75 101.92 169.5 116.74 165.14 117.78Z" fill="#E52E14"/>
<path d="M197.64 146.41C169.33 113.32 118.42 113.68 113.23 113.93C117.11 119.65 120.98 125.37 124.86 131.09C122.48 136.92 118.06 150.05 120.4 166.72C120.4 166.72 122.84 184.07 133.22 198.04C149.32 219.71 182.07 229.14 216.43 222.68C217.24 217.07 225.95 179.5 197.64 146.41Z" fill="url(#paint7_linear_1_2155)"/>
<path opacity="0.5" d="M175.39 196.67C168.28 172.42 153.77 151.1 133.83 135.58C132.63 134.65 131.06 136.42 132.26 137.36C142.61 145.42 151.44 155.05 158.52 165.84C148.64 169.67 138.48 167.38 131.23 159.63C130.19 158.52 128.63 160.3 129.66 161.41C137.53 169.82 148.91 172.25 159.6 167.97C159.69 167.93 159.74 167.88 159.81 167.83C165.55 176.98 170.04 186.92 173.13 197.45C173.58 198.9 175.82 198.13 175.39 196.67Z" fill="#367539"/>
<path d="M174.32 78.6801C134.88 108.57 145.01 162.35 169.05 190.3C193.5 218.73 246.87 214.56 273.47 185.84C300.55 156.6 292.32 108.71 263.93 83.9701C237.42 60.8701 204.49 55.8101 174.32 78.6801Z" fill="url(#paint8_linear_1_2155)"/>
<path d="M173.39 79.9C146.25 108 152.4 154.91 179.36 180.57C206.52 206.42 254.01 209.94 280.6 181.22C307.68 151.98 299.45 104.09 271.06 79.35C244.56 56.24 199.69 52.67 173.39 79.9Z" fill="#F0E6D4"/>
<path d="M86.77 170.84C90.05 169.91 92.82 184.05 89.36 184.7C85.89 185.34 84.23 171.56 86.77 170.84Z" fill="#C5CFAC"/>
<path d="M187.09 95.33C187.02 98.74 172.69 97.26 173.08 93.75C173.47 90.25 187.14 92.69 187.09 95.33Z" fill="#C5CFAC"/>
<path d="M99.26 216.98C98.26 220.24 84.88 214.88 86.22 211.62C87.56 208.36 100.03 214.45 99.26 216.98Z" fill="#C5CFAC"/>
<path d="M165.85 129.9C162.72 128.55 169.51 115.84 172.6 117.53C175.7 119.21 168.28 130.94 165.85 129.9Z" fill="#C5CFAC"/>
<path d="M176.36 146.78C175.81 143.41 190.17 142.28 190.42 145.79C190.67 149.31 176.79 149.39 176.36 146.78Z" fill="#C5CFAC"/>
<path d="M334.29 66.2601C322.11 31.5601 275.91 -31.9699 204.8 23.0501C188.21 38.9601 188.77 75.3701 203.15 115.51C224.51 175.12 256.77 193.32 267.61 190.74C280.32 187.72 311.69 175.54 320.4 164.7C341.2 138.8 344.68 95.8701 334.29 66.2601Z" fill="url(#paint9_linear_1_2155)"/>
<path d="M238.33 6.26004C201.4 24.48 194.42 77.27 212.35 116.93C228.57 152.82 271.1 184.48 306.95 172.39C346.74 158.97 362.92 96.88 342.29 54.16C324.27 16.86 275.17 -11.93 238.33 6.26004Z" fill="url(#paint10_radial_1_2155)"/>
<path opacity="0.3" d="M245.05 14.99C213.81 28.97 202.34 69.06 217.65 98.82C232.01 126.72 267.9 141.61 297.53 127.14C328.1 112.21 337.86 72.92 322.98 44.1C308.85 16.76 274.14 1.97002 245.05 14.99Z" fill="#FBAF9F"/>
<path d="M279.27 59.59C281.16 63.9 304.19 40.99 301.77 36.72C296.58 27.55 266.15 7.25001 240.18 25.33C214.21 43.41 220.12 86.5 232.31 98.67C238.34 104.69 261.51 83.66 259.5 79.82C257.79 76.56 249.18 80.79 245.97 75.8C241.61 69.03 249.65 54.07 258.73 48.04C271.54 39.53 281.36 38.97 282.47 40.76C283.58 42.54 278.08 56.86 279.27 59.59Z" fill="#E52E14"/>
<path opacity="0.5" d="M289.85 70.0401C287.42 66.7001 307.27 45.44 310.4 46.78C317.06 49.64 333.98 93.9001 311.06 119.28C288.15 144.66 252.3 123.41 245.07 114.55C240.46 108.9 262.91 89.81 266.18 90.58C269.45 91.35 262.21 108.88 264.63 111.52C268.02 115.23 285.41 107.39 294.85 99.31C308.61 87.53 307.45 67.0601 304.85 65.8801C302.24 64.6901 292.95 74.2901 289.85 70.0401Z" fill="#DD2400"/>
<path d="M228.07 57.13C202.43 77.11 186.46 107.33 192.96 137.3C200.41 171.62 232.85 189.67 237.44 192.18C242.65 178.16 255.4 151.56 251.78 117.78C248.86 90.51 239.43 72.41 228.07 57.13Z" fill="url(#paint11_linear_1_2155)"/>
<path opacity="0.5" d="M230.73 96.2701C229.25 104.84 225.17 112.47 218.88 118.38C218.63 103.7 220.68 89.0001 225.02 74.7601C225.47 73.3001 223.14 72.8301 222.7 74.2801C219.59 84.4801 217.66 94.9201 216.88 105.42C212.68 101 210.06 95.5401 209.27 89.3801C209.08 87.8801 206.71 88.0101 206.91 89.5301C207.87 96.9301 211.23 103.47 216.69 108.53C216.13 119.21 216.77 129.93 218.62 140.51C209.18 137.16 204.33 127.94 200.06 119.45C199.38 118.09 197.42 119.42 198.09 120.77C202.85 130.25 208.32 139.93 219.12 143.17C219.89 147.13 220.8 151.07 221.9 154.98C222.31 156.45 224.55 155.67 224.14 154.21C221.11 143.46 219.4 132.49 218.97 121.48C226.46 115.02 231.36 106.52 233.05 96.7501C233.31 95.2501 230.99 94.7601 230.73 96.2701Z" fill="#367539"/>
<path d="M286.59 59.48C279.51 81.7 283.58 102.43 285.26 110.96C288.36 126.74 294.09 138.94 298.54 146.83C308.19 141.84 323.33 132.22 335.76 114.94C342.46 105.61 352.9 91.78 353.16 71.46C353.36 55.9 348.6 40.69 339.58 28.02L338.38 3.78003C330.83 7.32003 297.97 23.73 286.59 59.48Z" fill="url(#paint12_linear_1_2155)"/>
<path opacity="0.5" d="M325.4 27.4C320.71 37.98 317.12 49.04 314.71 60.34C309.11 55.65 305.92 47.57 305.94 40.4C305.94 38.88 303.58 39.0301 303.58 40.5501C303.56 48.6001 307.32 57.8101 313.85 62.7401C313.95 62.8201 314.06 62.8501 314.17 62.8901C310.98 79.1201 310.25 95.8101 312.35 112.29C312.54 113.79 314.91 113.66 314.71 112.14C311.08 83.7001 315.91 54.6101 327.51 28.4601C328.13 27.0801 326.02 26.01 325.4 27.4Z" fill="#367539"/>
<path d="M110.73 205.2C110.73 205.2 261.27 104.52 335.78 58.28C335.78 58.28 386.7 105.36 359.74 176.22C359.74 176.22 163.56 320.58 110.39 342.93L110.73 205.2Z" fill="url(#paint13_linear_1_2155)"/>
<path d="M188.33 296.65C200.69 288.49 213.57 279.79 226.48 270.94C227.04 261.58 225.85 250.14 219.59 239.25C212.28 226.51 198.39 215.09 193.05 218.12C187.6 221.2 195.19 236.93 194.93 260.41C194.77 274.14 191.98 286.34 188.33 296.65Z" fill="url(#paint14_linear_1_2155)"/>
<path d="M287.02 228.66C286.63 221.75 284.84 214.27 281.54 206.52C272.25 184.72 255.36 171.6 250.06 175.14C244.97 178.54 254.32 197.19 255.55 225.77C255.97 235.42 255.07 244.29 253.55 252.21C265.1 244.15 276.38 236.2 287.02 228.66Z" fill="url(#paint15_linear_1_2155)"/>
<path d="M310 131.49C304.51 134.99 315.6 152.91 316.34 181.1C316.62 191.65 315.38 201.28 313.45 209.78C325.69 200.99 336.21 193.37 344.11 187.63C344.23 176.85 341.32 163.08 337.34 155.78C329.04 140.51 315.18 128.2 310 131.49Z" fill="url(#paint16_linear_1_2155)"/>
<path opacity="0.2" d="M133.05 267.27L132.61 267.3C125.21 267.75 117.87 267.89 110.58 267.8L110.4 342.93C163.56 320.58 359.75 176.22 359.75 176.22C367.92 154.74 368.91 135.46 366.36 119C336.51 189.77 206.06 265.65 133.05 267.27Z" fill="#C97223"/>
<path d="M110.73 205.2C98.22 238.08 85.72 270.95 73.21 303.83C67.73 318.52 59.1801 340.71 59.1801 340.71C91.9601 353.85 126.73 343.62 143.02 318.74C164.23 286.37 153.11 230.8 110.73 205.2Z" fill="url(#paint17_linear_1_2155)"/>
<path d="M110.73 205.2C110.13 207.74 108.33 211.99 106.97 214.92C131.92 225.23 143.06 249.56 145.01 272.75C148.14 310.04 124.71 336.08 88.1801 338.91C55.2601 341.46 24.49 313.53 15.05 278.13C15.01 278 14.9799 277.81 14.9399 277.67C12.3799 277.69 9.88996 277.38 7.45996 276.76C10.11 289.83 15.3 303.14 24.53 315.07C53.26 352.2 113.32 360.33 143.02 318.74C165.51 287.25 153.11 230.8 110.73 205.2Z" fill="#FFAF57"/>
<path d="M256.53 40.28C254.73 40.91 252.28 38.9501 251.37 36.8301C250.41 34.6101 250.73 31.27 252.64 30.42C254.45 29.62 257.01 31.3501 258.02 33.3601C259.29 35.8701 258.53 39.58 256.53 40.28Z" fill="#F79421"/>
<path d="M244.46 53.3201C243.35 54.5001 240.78 54 239.29 52.78C237.73 51.5 236.69 48.8901 237.8 47.5201C238.85 46.2201 241.42 46.5001 242.94 47.6001C244.85 48.9601 245.69 52.0201 244.46 53.3201Z" fill="#F79421"/>
<path d="M273.38 35.57C271.73 35.74 270.06 33.6 269.72 31.63C269.36 29.57 270.29 26.81 272.07 26.48C273.75 26.17 275.57 28.14 276.02 30.03C276.58 32.39 275.2 35.37 273.38 35.57Z" fill="#F79421"/>
<path opacity="0.3" d="M127.26 261.5C126.38 260.8 125.15 260.44 124.03 260.57C122.96 260.69 121.73 261.31 121.09 262.2C119.69 264.13 119.86 266.84 121.78 268.37C122.66 269.07 123.89 269.43 125.01 269.3C126.08 269.18 127.31 268.56 127.95 267.67C129.35 265.75 129.18 263.04 127.26 261.5Z" fill="#D07825"/>
<path opacity="0.3" d="M84.13 326.29C83.54 327.09 83.27 328.18 83.42 329.16C83.56 330.1 84.15 331.15 84.95 331.69C86.69 332.86 89.07 332.62 90.35 330.87C90.94 330.07 91.2101 328.98 91.0601 328C90.9201 327.06 90.33 326.01 89.53 325.47C87.79 324.31 85.41 324.55 84.13 326.29Z" fill="#D07825"/>
<path opacity="0.3" d="M118.8 238.35C117.33 237.18 114.9 237.35 113.76 238.92C112.62 240.49 112.76 242.71 114.33 243.96C115.8 245.13 118.23 244.96 119.37 243.39C120.51 241.82 120.38 239.6 118.8 238.35Z" fill="#D07825"/>
<path opacity="0.3" d="M45.05 313.74C44.07 315.07 44.2999 317.2 45.7199 318.15C47.1399 319.1 49.08 318.91 50.13 317.48C51.11 316.15 50.8799 314.02 49.4599 313.07C48.0399 312.12 46.1 312.31 45.05 313.74Z" fill="#D07825"/>
<path opacity="0.3" d="M113.98 253.84C112.81 252.88 110.85 252.99 109.91 254.24C108.97 255.49 109.05 257.28 110.31 258.31C111.48 259.27 113.44 259.16 114.38 257.91C115.32 256.65 115.23 254.87 113.98 253.84Z" fill="#D07825"/>
<path d="M183.25 176.24C180.58 175.29 169.53 185.1 176.83 188.97C183.69 192.6 188.1 177.96 183.25 176.24Z" fill="#FFE8A7"/>
<path d="M290.28 87.3601C287.26 80.2301 301.84 79.1601 303.19 81.5601C305.19 85.0901 292.51 92.6201 290.28 87.3601Z" fill="#FFE8A7"/>
<path d="M207.17 152.65C204.56 144.08 191.57 156.85 192.92 159.25C194.28 161.65 209.66 160.8 207.17 152.65Z" fill="#FFE8A7"/>
<path d="M229.51 142.01C227.28 144.45 239.56 154.61 242.55 146.92C245.44 139.49 232.24 139.04 229.51 142.01Z" fill="#FFE8A7"/>
<path d="M146.5 199.49C137.63 197.16 138.01 213.09 140.67 213.79C143.33 214.49 153.2 201.26 146.5 199.49Z" fill="#FFE8A7"/>
<path d="M274.51 107.56C281.9 105.24 281.55 119.85 279.03 120.97C275.32 122.61 269.07 109.25 274.51 107.56Z" fill="#FFE8A7"/>
<path d="M313.07 100.77C310.46 92.2 298.83 103.23 300.19 105.63C301.54 108.03 315.55 108.92 313.07 100.77Z" fill="#FFE8A7"/>
<path d="M144.56 175.9C150.63 169.55 157.01 182.28 155.18 185.15C153.7 187.48 139.7 180.97 144.56 175.9Z" fill="#FFE8A7"/>
<path d="M231.4 122.53C232.15 129.64 245.55 123.37 244.68 120.52C243.81 117.66 230.63 115.35 231.4 122.53Z" fill="#FFE8A7"/>
<defs>
<linearGradient id="paint0_linear_1_2155" x1="-17.2368" y1="230.127" x2="139.938" y2="374.255" gradientUnits="userSpaceOnUse">
<stop offset="0.1902" stop-color="#FFE49B"/>
<stop offset="1" stop-color="#FFB144"/>
</linearGradient>
<linearGradient id="paint1_linear_1_2155" x1="122.133" y1="265.794" x2="-22.2279" y2="137.03" gradientUnits="userSpaceOnUse">
<stop offset="0.0172" stop-color="#DA1F09"/>
<stop offset="1" stop-color="#FF5525"/>
</linearGradient>
<radialGradient id="paint2_radial_1_2155" cx="0" cy="0" r="1" gradientUnits="userSpaceOnUse" gradientTransform="translate(86.3104 220.861) rotate(-3.61764) scale(81.0409 81.0409)">
<stop offset="0.1843" stop-color="#FF9467"/>
<stop offset="0.3816" stop-color="#FF8A5D"/>
<stop offset="0.7214" stop-color="#FF6F41"/>
<stop offset="1" stop-color="#FF5525"/>
</radialGradient>
<linearGradient id="paint3_linear_1_2155" x1="32.3752" y1="225.574" x2="97.6448" y2="262.515" gradientUnits="userSpaceOnUse">
<stop offset="0.0327" stop-color="#84B73B"/>
<stop offset="0.7051" stop-color="#6A9A24"/>
<stop offset="1" stop-color="#528A00"/>
</linearGradient>
<linearGradient id="paint4_linear_1_2155" x1="92.0533" y1="148.593" x2="144.863" y2="206.827" gradientUnits="userSpaceOnUse">
<stop stop-color="#E1D2A4"/>
<stop offset="0.5586" stop-color="#DBCB9C"/>
<stop offset="1" stop-color="#D4C292"/>
</linearGradient>
<linearGradient id="paint5_linear_1_2155" x1="175.505" y1="164.146" x2="50.2193" y2="63.6791" gradientUnits="userSpaceOnUse">
<stop offset="0.0172" stop-color="#DA1F09"/>
<stop offset="1" stop-color="#FF5525"/>
</linearGradient>
<radialGradient id="paint6_radial_1_2155" cx="0" cy="0" r="1" gradientUnits="userSpaceOnUse" gradientTransform="translate(174.603 148.797) rotate(-3.61764) scale(80.4617 80.4617)">
<stop offset="0.1843" stop-color="#FF9467"/>
<stop offset="0.3816" stop-color="#FF8A5D"/>
<stop offset="0.7214" stop-color="#FF6F41"/>
<stop offset="1" stop-color="#FF5525"/>
</radialGradient>
<linearGradient id="paint7_linear_1_2155" x1="116.344" y1="144.754" x2="169.381" y2="174.579" gradientUnits="userSpaceOnUse">
<stop offset="0.0327" stop-color="#84B73B"/>
<stop offset="0.7051" stop-color="#6A9A24"/>
<stop offset="1" stop-color="#528A00"/>
</linearGradient>
<linearGradient id="paint8_linear_1_2155" x1="181.268" y1="84.0954" x2="223.83" y2="146.23" gradientUnits="userSpaceOnUse">
<stop stop-color="#E1D2A4"/>
<stop offset="0.5586" stop-color="#DBCB9C"/>
<stop offset="1" stop-color="#D4C292"/>
</linearGradient>
<linearGradient id="paint9_linear_1_2155" x1="241.805" y1="77.5887" x2="153.828" y2="15.7939" gradientUnits="userSpaceOnUse">
<stop offset="0.0172" stop-color="#DA1F09"/>
<stop offset="1" stop-color="#FF5525"/>
</linearGradient>
<radialGradient id="paint10_radial_1_2155" cx="0" cy="0" r="1" gradientUnits="userSpaceOnUse" gradientTransform="translate(277.31 87.7928) rotate(-3.61764) scale(81.0848 81.0848)">
<stop offset="0.1843" stop-color="#FF9467"/>
<stop offset="0.3816" stop-color="#FF8A5D"/>
<stop offset="0.7214" stop-color="#FF6F41"/>
<stop offset="1" stop-color="#FF5525"/>
</radialGradient>
<linearGradient id="paint11_linear_1_2155" x1="200.081" y1="90.9559" x2="232.986" y2="130.35" gradientUnits="userSpaceOnUse">
<stop offset="0.0327" stop-color="#84B73B"/>
<stop offset="0.7051" stop-color="#6A9A24"/>
<stop offset="1" stop-color="#528A00"/>
</linearGradient>
<linearGradient id="paint12_linear_1_2155" x1="306.726" y1="26.3338" x2="315.708" y2="70.0046" gradientUnits="userSpaceOnUse">
<stop offset="0.0327" stop-color="#84B73B"/>
<stop offset="0.7051" stop-color="#6A9A24"/>
<stop offset="1" stop-color="#528A00"/>
</linearGradient>
<linearGradient id="paint13_linear_1_2155" x1="178.131" y1="165.563" x2="287.946" y2="251.159" gradientUnits="userSpaceOnUse">
<stop stop-color="#F29C3F"/>
<stop offset="1" stop-color="#E6841A"/>
</linearGradient>
<linearGradient id="paint14_linear_1_2155" x1="242.769" y1="296.26" x2="182.096" y2="247.855" gradientUnits="userSpaceOnUse">
<stop stop-color="#EC9034"/>
<stop offset="1" stop-color="#DF731B"/>
</linearGradient>
<linearGradient id="paint15_linear_1_2155" x1="294.95" y1="251.816" x2="250.674" y2="208.717" gradientUnits="userSpaceOnUse">
<stop stop-color="#EC9034"/>
<stop offset="1" stop-color="#DF731B"/>
</linearGradient>
<linearGradient id="paint16_linear_1_2155" x1="359.64" y1="199.995" x2="308.218" y2="166.628" gradientUnits="userSpaceOnUse">
<stop stop-color="#EC9034"/>
<stop offset="1" stop-color="#DF731B"/>
</linearGradient>
<linearGradient id="paint17_linear_1_2155" x1="8.68667" y1="201.851" x2="165.864" y2="345.98" gradientUnits="userSpaceOnUse">
<stop offset="0.1902" stop-color="#FFE49B"/>
<stop offset="1" stop-color="#FFB144"/>
</linearGradient>
</defs>
</svg>
