<svg width="301" height="480" viewBox="0 0 301 480" fill="none" xmlns="http://www.w3.org/2000/svg">
<path d="M258.13 428.75C258.13 454.07 209.23 474.59 148.9 474.59C88.5699 474.59 39.6699 454.07 39.6699 428.75C39.6699 403.43 88.5699 382.91 148.9 382.91C209.22 382.91 258.13 403.43 258.13 428.75Z" fill="#5C2C14"/>
<path d="M261.47 429.85C261.47 457.39 210.26 479.71 147.09 479.71C83.9201 479.71 32.7 457.39 32.7 429.85C32.7 402.31 83.9101 379.98 147.09 379.98C210.25 379.99 261.47 402.31 261.47 429.85Z" fill="#7B401E"/>
<path d="M237.65 413.15C237.65 433.94 198.72 450.8 150.7 450.8C102.68 450.8 63.75 433.94 63.75 413.15C63.75 392.36 102.68 375.5 150.7 375.5C198.72 375.49 237.65 392.35 237.65 413.15Z" fill="#5C2C14"/>
<path d="M166.03 189.77C174.38 188.48 182.1 187.2 190.46 186.56C220.02 183.35 248.95 183.99 272.09 205.85C295.23 227.06 300.37 263.05 300.37 290.05C300.37 364.77 253.45 437.88 150.61 437.88C-14.58 437.88 -23.3601 265.32 28.4799 210.99C59.0699 178.93 96.16 166.33 151.62 190.09L166.03 189.77Z" fill="url(#paint0_radial_1_1740)"/>
<path opacity="0.7" d="M155.41 206.71C135.43 197.27 116.15 188.7 92.6698 188.26C83.1498 188.08 73.1998 189.19 65.1498 194.61C51.7998 203.6 57.0798 223.56 64.6698 234.21C86.9298 265.45 136.98 277.36 171.56 273.24C197.89 270.1 227.91 258.1 246.73 237.51C263.02 219.69 247.79 201.39 229.14 197.16C199.92 190.54 157.2 207.55 155.41 206.71Z" fill="#663317"/>
<path d="M158.97 205.16C139.51 196.51 120.73 188.66 97.87 188.25C88.6 188.09 78.9 189.1 71.07 194.07C58.07 202.31 66.2999 222.01 73.6899 231.77C95.3699 260.4 141.02 269.92 174.69 266.14C200.33 263.26 229.57 252.26 247.9 233.39C263.76 217.06 248.93 200.28 230.77 196.41C202.32 190.35 160.71 205.94 158.97 205.16Z" fill="url(#paint1_linear_1_1740)"/>
<path d="M160.21 212.86C143.6 212.91 129.72 213.36 129.42 215.66C128.72 220.91 146.01 227.82 159.82 228.19C174.77 228.58 193.87 216.29 193.11 212.86C192.56 210.45 178.98 212.81 160.21 212.86Z" fill="#819522"/>
<path d="M43.81 434.38C51.42 444.24 61.0099 451.33 72.7899 455.46C79.5999 457.85 82.5299 447.04 75.7699 444.66C67.0199 441.59 59.1699 436.09 53.4799 428.72C49.1299 423.11 39.4 428.68 43.81 434.38Z" fill="url(#paint2_linear_1_1740)"/>
<path d="M91.9399 462.31C93.0599 462.47 94.18 462.63 95.3 462.79C96.85 463.01 98.2 463.05 99.61 462.23C100.77 461.55 101.88 460.22 102.18 458.88C102.78 456.23 101.37 452.44 98.2699 451.99C97.1499 451.83 96.0298 451.67 94.9098 451.51C93.3598 451.29 92.01 451.25 90.6 452.07C89.44 452.75 88.3299 454.08 88.0299 455.42C87.4299 458.07 88.8399 461.87 91.9399 462.31Z" fill="url(#paint3_linear_1_1740)"/>
<path opacity="0.2" d="M167.93 250.86C167.3 247.16 193.58 246.24 203.12 227.99C207.15 220.27 205.26 215.08 211.04 210.39C217.51 205.14 229.29 204.02 235.23 209.95C239.57 214.28 239.23 220.82 239.19 221.39C237.97 239.77 204.74 249.82 202.68 250.42C185.39 255.46 168.43 253.79 167.93 250.86Z" fill="#ECFFB8"/>
<path opacity="0.3" d="M128.43 244.66C130.54 240.54 107.63 229.6 109.77 216.68C111 209.28 119.4 207.54 118.48 203.62C116.67 195.92 81.77 192.48 76.2 204.24C75.3 206.13 75.4201 207.88 75.5801 209.84C76.5701 222.21 88.3901 230.52 93.6101 234.09C108.24 244.08 126.64 248.15 128.43 244.66Z" fill="#ECFFB8"/>
<path d="M38.7799 219.51C37.4099 214.04 5.18994 267.1 17.7799 323.79C30.3799 380.48 66.77 409.87 97.57 414.07C128.37 418.27 182.95 386.08 169.66 291.59C169.66 291.6 58.3799 297.9 38.7799 219.51Z" fill="url(#paint4_linear_1_1740)"/>
<path opacity="0.2" d="M68.2 314.28C69.28 302.8 71.3399 292.65 73.6299 284.1C67.8099 280.8 60.1701 275.65 52.5901 267.88C43.9801 259.07 38.68 250.19 35.49 243.77C32.8 250.9 28.4499 264.32 27.1599 281.65C38.7499 294.27 53.32 304.83 68.2 314.28Z" fill="white"/>
<path opacity="0.2" d="M27.1599 301.28C27.5799 307.14 28.4 313.25 29.79 319.61C39.75 365.21 70.75 390.73 79.76 397.64C73.98 382.52 67.2599 359.11 67.4199 330.26C53.4499 321.67 39.3099 312.2 27.1599 301.28Z" fill="white"/>
<path d="M148.66 226.28C148.66 226.28 112.73 46.18 103.86 13.81C100.19 0.420012 130.54 -4.18999 132.41 5.61001C136.54 27.3 171.53 226.75 171.53 226.75C171.53 226.75 157.06 230.94 148.66 226.28Z" fill="#FDD994"/>
<path d="M148.66 226.28C148.66 226.28 112.73 46.18 103.86 13.81C100.19 0.420012 130.54 -4.18999 132.41 5.61001C136.54 27.3 171.53 226.75 171.53 226.75C171.53 226.75 157.06 230.94 148.66 226.28Z" fill="url(#paint5_linear_1_1740)"/>
<path opacity="0.3" d="M83.5201 204.68C79.2401 207.16 83.0802 213.79 87.3602 211.31C91.6402 208.83 87.8001 202.2 83.5201 204.68Z" fill="white"/>
<path opacity="0.3" d="M217.87 213.22C213.59 215.7 217.43 222.33 221.71 219.85C225.98 217.38 222.14 210.74 217.87 213.22Z" fill="white"/>
<path opacity="0.3" d="M228.67 218.27C227.92 219.61 228.41 221.34 229.74 222.09C231.08 222.84 232.81 222.35 233.56 221.01C234.31 219.68 233.82 217.94 232.48 217.19C231.15 216.44 229.41 216.93 228.67 218.27Z" fill="white"/>
<path opacity="0.3" d="M97.3798 208.61C96.0498 209.38 95.59 211.12 96.36 212.44C97.13 213.77 98.8699 214.23 100.2 213.46C101.52 212.69 101.99 210.95 101.22 209.63C100.45 208.31 98.6998 207.84 97.3798 208.61Z" fill="white"/>
<path opacity="0.3" d="M223.01 228.8C221.51 231.48 225.67 233.81 227.17 231.13C228.67 228.44 224.51 226.11 223.01 228.8Z" fill="white"/>
<path opacity="0.3" d="M87.2199 216.94C84.5599 218.48 86.95 222.6 89.61 221.06C92.26 219.53 89.8699 215.41 87.2199 216.94Z" fill="white"/>
<defs>
<radialGradient id="paint0_radial_1_1740" cx="0" cy="0" r="1" gradientUnits="userSpaceOnUse" gradientTransform="translate(121.696 264.017) scale(186.852 186.852)">
<stop offset="0.3593" stop-color="#8C5027"/>
<stop offset="0.6466" stop-color="#834820"/>
<stop offset="0.9294" stop-color="#753B15"/>
</radialGradient>
<linearGradient id="paint1_linear_1_1740" x1="152.969" y1="200.549" x2="203.246" y2="310.773" gradientUnits="userSpaceOnUse">
<stop offset="0.0102" stop-color="#A4CC39"/>
<stop offset="1" stop-color="#70A614"/>
</linearGradient>
<linearGradient id="paint2_linear_1_1740" x1="27.8916" y1="429.392" x2="119.511" y2="461.051" gradientUnits="userSpaceOnUse">
<stop offset="0.284" stop-color="#A16031"/>
<stop offset="1" stop-color="#8C5027"/>
</linearGradient>
<linearGradient id="paint3_linear_1_1740" x1="26.4915" y1="433.443" x2="118.111" y2="465.102" gradientUnits="userSpaceOnUse">
<stop offset="0.284" stop-color="#A16031"/>
<stop offset="1" stop-color="#8C5027"/>
</linearGradient>
<linearGradient id="paint4_linear_1_1740" x1="33.7684" y1="215.491" x2="145.316" y2="401.403" gradientUnits="userSpaceOnUse">
<stop offset="0.284" stop-color="#A16031"/>
<stop offset="1" stop-color="#8C5027"/>
</linearGradient>
<linearGradient id="paint5_linear_1_1740" x1="132.739" y1="116.242" x2="172.631" y2="107.844" gradientUnits="userSpaceOnUse">
<stop offset="0.0145" stop-color="#FDD994"/>
<stop offset="1" stop-color="#CDA465"/>
</linearGradient>
</defs>
</svg>
