<svg width="371" height="454" viewBox="0 0 371 454" fill="none" xmlns="http://www.w3.org/2000/svg">
<path d="M298.54 250.47C239.44 237.66 177.47 236.28 117.75 245.42C84.7001 250.47 55.3301 243.41 29.5801 267.55C-11.4099 305.98 -2.9099 358.44 17.9101 388.69C39.5401 420.13 77.5801 438.19 113.7 445.77C200.36 463.95 347.24 452.85 368.59 355.5C378.22 311.6 350.66 259.01 298.85 250.53C298.75 250.52 298.65 250.49 298.54 250.47Z" fill="url(#paint0_radial_1_2669)"/>
<path d="M202.29 274.08C133.64 271.21 36.3201 284.73 37.8101 313.51C39.8501 353.05 123.99 386.56 202.29 382.61C278.5 378.77 332.3 349.31 332.94 323.05C333.61 295.54 256.26 276.34 202.29 274.08Z" fill="#C74E28"/>
<path d="M38.97 317.93C30.52 304.96 36.41 170.2 95.33 152.27C154.25 134.34 235.49 129.8 275.51 147.15C326.75 169.35 345.55 291.22 334.86 316.66C322.48 346.12 267.83 373.45 188.41 373.45C129.47 373.44 62.88 354.65 38.97 317.93Z" fill="url(#paint1_linear_1_2669)"/>
<path opacity="0.5" d="M95.9201 162.88C68.0501 205.45 54.8701 254.42 56.8301 305.27C57.0201 310.2 63.8101 311.13 63.8801 306.17C64.5301 257.92 80.2101 207.28 114.22 170.56C117.59 166.92 98.6201 158.76 95.9201 162.88Z" fill="#C74E28"/>
<path opacity="0.5" d="M133.19 182.03C114.47 226.23 107.69 279.46 106.93 325.49C106.85 330.44 112.92 332.01 113.33 327.09C118.13 270.09 129.98 230.7 149.2 188.75C151.24 184.31 135.12 177.49 133.19 182.03Z" fill="#C74E28"/>
<path opacity="0.6" d="M174.36 189.33C172.57 238.75 176.46 297.18 174.67 346.6C174.49 351.55 181.88 351.52 182.36 346.6C187.4 294.63 190.09 236.13 191.89 186.71C192.06 181.76 174.54 184.39 174.36 189.33Z" fill="#C74E28"/>
<path opacity="0.7" d="M234.04 175.73C232.79 170.95 219.63 183.35 220.88 188.14C233.72 237.22 240.88 285.51 242.72 336.28C242.9 341.22 249.35 340.85 249.71 335.91C253.4 285.88 247.05 225.44 234.04 175.73Z" fill="#C74E28"/>
<path opacity="0.8" d="M271.67 160.3C269.05 156.11 252.57 166.83 255.97 170.38C281.92 197.53 298.64 259.77 304.29 316.06C304.78 320.98 312.1 320.53 311.96 315.59C310.51 263.62 298.14 202.65 271.67 160.3Z" fill="#C74E28"/>
<path d="M275.51 147.15C247.07 134.83 197.84 133.56 150.57 140.28C116.79 163.4 90.6301 181.3 90.6301 181.3C90.6301 181.38 90.7301 181.71 90.9401 182.25C94.2401 191.04 124.8 255.59 207.2 214.6C207.2 214.6 212.75 245.34 248.19 206.06C247.56 206.76 250.47 211.12 250.86 211.62C253.82 215.46 258.1 216.93 262.87 216.37C285.03 213.73 302.63 189.09 303.49 172.45C295.57 160.85 286.25 151.8 275.51 147.15Z" fill="#C74E28"/>
<path d="M268.3 110.77C264.45 107.85 259.76 109.18 257.2 111.91C207.77 116.92 158.14 118.63 108.45 116.98C106.34 116.91 104.73 117.57 103.56 118.62C76.0701 129.99 71.8001 162.48 89.5001 184.48C104.14 202.68 127.6 211.63 149.78 216.42C174.75 221.82 200.83 217.14 219.66 198.88C215.73 203.4 213.32 212 217.77 213.63C231.74 218.74 247.38 201.82 253.53 195.48C250.03 197.52 250.4 203.32 253.63 205.76C256.86 208.2 261.59 207.71 265.08 205.65C271.65 201.78 279.58 194.5 284.31 188.52C304.97 162.43 293.26 129.72 268.3 110.77Z" fill="url(#paint2_linear_1_2669)"/>
<path d="M209.12 99.68C208.79 85.21 198.32 73.41 184.75 69.42C171.03 65.39 154.85 71.45 147.56 83.8C140.39 95.94 141.75 112.14 151.87 122.26C170.25 140.64 209.76 127.65 209.12 99.68Z" fill="url(#paint3_linear_1_2669)"/>
<path d="M169.1 132.55C167.79 129.06 230.76 0.689955 237.01 0.779955C256.2 1.04995 314.26 57.4099 286.73 113.79C261.46 165.56 174.52 147.02 169.1 132.55Z" fill="#A0CB3D"/>
<path opacity="0.5" d="M237.01 0.779982C235.91 0.759982 233.02 4.76999 229.05 11.38C254.33 18.73 271.82 42.45 273.04 69.67C274.51 102.43 244.11 130.32 212.39 130.32C198.05 130.32 185.29 125.36 175.21 117.18C171.21 126.02 168.84 131.84 169.11 132.55C174.53 147.02 261.47 165.55 286.75 113.79C314.26 57.41 256.2 1.04998 237.01 0.779982Z" fill="#85A832"/>
<path opacity="0.5" d="M277.26 33.04C299.71 85.49 276.53 136.83 226.74 147.81C250.5 146.49 275.12 137.57 286.73 113.79C301.21 84.15 292.01 54.53 277.26 33.04Z" fill="#698C28"/>
<path d="M162.44 116.07C161.09 111.16 158.33 106.53 153.9 102.69C139.43 90.11 115.43 92.69 105.11 109.48C93.1301 128.97 110.74 156.03 132.24 156.31C152.94 156.58 167.49 134.4 162.44 116.07Z" fill="url(#paint4_linear_1_2669)"/>
<path opacity="0.5" d="M162.44 116.07C161.09 111.16 158.33 106.53 153.9 102.69C139.43 90.11 115.43 92.69 105.11 109.48C93.1301 128.97 110.74 156.03 132.24 156.31C152.94 156.58 167.49 134.4 162.44 116.07ZM128.41 145.26C99.4602 145.26 99.5102 100.35 128.41 100.35C157.36 100.35 157.31 145.26 128.41 145.26Z" fill="#D62E14"/>
<path d="M103.25 149.11C102.31 147.78 136.65 127.45 133.04 151.37C133.04 151.37 159.67 133.32 160.57 148.21C160.57 148.21 135.29 194.24 103.25 149.11Z" fill="url(#paint5_linear_1_2669)"/>
<path d="M207.36 121.51C191.18 106.64 167.49 110.48 156.62 128.58C153.73 133.39 152.01 138.91 151.96 144.64C151.84 159.25 161.73 172.26 175.69 176.41C189.42 180.49 205.53 174.52 212.64 161.89C219.92 148.98 218.62 131.86 207.36 121.51Z" fill="url(#paint6_linear_1_2669)"/>
<path opacity="0.5" d="M207.36 121.51C191.18 106.64 167.49 110.48 156.62 128.58C153.73 133.39 152.01 138.91 151.96 144.64C151.84 159.25 161.73 172.26 175.69 176.41C189.42 180.49 205.53 174.52 212.64 161.89C219.92 148.98 218.62 131.86 207.36 121.51ZM181.28 164.56C152.33 164.56 152.38 119.65 181.28 119.65C210.23 119.65 210.18 164.56 181.28 164.56Z" fill="#D62E14"/>
<path opacity="0.7" d="M247.33 66.8801C236.62 64.4901 223.21 60.69 213.41 57.68C218.89 54.92 228.19 50.29 233.98 47.4C241.26 43.76 237.93 33.75 230.27 36.83C223.4 39.6 216.69 42.66 210.11 45.97C208.65 48.77 207.18 51.6301 205.7 54.5201C207.14 56.2501 208.06 58.4401 208.06 60.6901V60.9C208.06 66.29 203.65 70.2901 198.44 70.5201C198.17 70.5301 197.91 70.4801 197.64 70.4601C195.98 73.7901 194.33 77.1 192.72 80.37C194.48 87.3 197.38 93.78 199.5 100.61C201.93 108.46 209.54 107.89 208.04 99.76C206.55 91.65 205.86 82.4401 204.41 76.9601C209.09 81.9201 219.17 89.8901 223.84 94.8501C229.51 100.86 235.13 94.8501 229.47 88.8501L209.55 67.64C220.75 70.14 234.45 73.83 245.65 76.33C253.69 78.12 255.38 68.6701 247.33 66.8801Z" fill="#FFFBC4"/>
<path opacity="0.5" d="M250.02 85.9199C249.01 85.3399 248 84.7699 247 84.1899C244.09 82.5299 239.86 83.4099 238.24 86.4899C236.63 89.5299 237.43 93.4799 240.54 95.2499C241.55 95.8299 242.55 96.3999 243.56 96.9799C246.47 98.6399 250.7 97.7599 252.32 94.6799C253.92 91.6399 253.12 87.6999 250.02 85.9199Z" fill="#698C28"/>
<path opacity="0.5" d="M253 52.58C252.45 50.89 251.46 49.81 250.06 48.75C247.22 46.61 243 47.55 240.62 49.86C238.21 52.2 238.1 56.6 240.62 58.92C242.24 60.4 244.36 61.01 246.36 60.64C247.14 60.68 247.92 60.63 248.54 60.46C250.03 60.05 251.64 58.9 252.37 57.52C253.14 56.02 253.53 54.22 253 52.58Z" fill="#698C28"/>
<path opacity="0.5" d="M226.03 107.25C225.74 106.42 225.46 105.6 225.17 104.77C224.07 101.6 219.5 100.2 216.65 101.68C213.31 103.42 212.38 106.8 213.56 110.2C213.85 111.03 214.13 111.85 214.42 112.68C215.52 115.85 220.09 117.25 222.94 115.77C226.28 114.02 227.21 110.65 226.03 107.25Z" fill="#698C28"/>
<path d="M222.49 108.36C221.97 106.8 220.97 105.41 219.82 104.92C215.52 103.09 217.15 112.16 218.94 113.54C220.67 114.88 222.82 113.17 222.87 110.76C222.89 109.98 222.75 109.15 222.49 108.36Z" fill="#703F36"/>
<path d="M246.32 87.45C244.77 86.91 243.06 86.84 241.97 87.45C237.89 89.73 246.05 93.99 248.24 93.42C250.36 92.87 250.33 90.13 248.45 88.61C247.85 88.12 247.1 87.72 246.32 87.45Z" fill="#703F36"/>
<path d="M245.27 51.9199C243.65 52.2299 242.15 53.0299 241.51 54.1099C239.12 58.1299 248.33 57.7099 249.94 56.1199C251.49 54.5799 250.09 52.2299 247.7 51.8599C246.92 51.7299 246.08 51.7599 245.27 51.9199Z" fill="#703F36"/>
<path opacity="0.7" d="M225.5 25.7599C224.44 27.0199 223.77 28.59 223.94 29.82C224.61 34.45 231.51 28.34 231.76 26.1C232 23.92 229.43 22.9799 227.34 24.1799C226.67 24.5699 226.04 25.1199 225.5 25.7599Z" fill="#703F36"/>
<path opacity="0.7" d="M192 104.79C192.38 103.19 192.27 101.49 191.56 100.46C188.88 96.6299 185.47 105.19 186.26 107.31C187.03 109.36 189.74 109.05 191.07 107.03C191.49 106.37 191.81 105.59 192 104.79Z" fill="#703F36"/>
<path d="M124.46 105.77C123.26 103.92 120.44 102.76 118.44 104.19C117.58 104.8 116.73 105.41 115.87 106.02C114 107.36 112.92 109.92 114.29 112.04C115.49 113.89 118.31 115.05 120.31 113.62C121.17 113.01 122.02 112.4 122.88 111.79C124.75 110.46 125.83 107.89 124.46 105.77Z" fill="#F9F6EA"/>
<path d="M178.7 123.18C176.82 121.46 174.48 121.66 172.59 123.18C171.99 123.66 171.39 124.14 170.79 124.62C169.02 126.04 169.2 129.27 170.79 130.73C172.67 132.45 175.01 132.25 176.9 130.73C177.5 130.25 178.1 129.77 178.7 129.29C180.47 127.87 180.29 124.64 178.7 123.18Z" fill="#F9F6EA"/>
<path d="M165.6 133.47C163.85 133.55 162.36 134.89 162.36 136.71V137.07C162.36 138.76 163.85 140.39 165.6 140.31C167.35 140.23 168.84 138.89 168.84 137.07V136.71C168.84 135.02 167.35 133.39 165.6 133.47Z" fill="#F9F6EA"/>
<path d="M151.99 163.55C151.99 163.55 186.74 145.5 186.74 166.26C186.74 166.26 218.93 149.21 218.93 162.3C218.93 175.39 175.46 206.88 151.99 163.55Z" fill="url(#paint7_linear_1_2669)"/>
<path opacity="0.2" d="M133.64 207.14C133.64 207.14 184.56 206.02 202.96 167.96C202.96 167.97 174.19 196.9 133.64 207.14Z" fill="#C07C4B"/>
<path opacity="0.2" d="M191.72 205.85C191.72 205.85 236.23 194 240.71 152.69C240.71 152.7 227.73 184.58 191.72 205.85Z" fill="#C07C4B"/>
<path opacity="0.2" d="M235.03 200.56C235.03 200.56 276.66 180.86 273.6 139.42C273.6 139.42 266.6 173.13 235.03 200.56Z" fill="#C07C4B"/>
<path opacity="0.2" d="M113 193.18C113 193.18 152.02 191.07 167.55 165.57C167.55 165.57 148.26 178.81 113 193.18Z" fill="#C07C4B"/>
<path opacity="0.2" d="M90.2002 174.88C90.2002 174.88 121.36 179.74 139.5 154.71C139.5 154.71 119.57 167.99 90.2002 174.88Z" fill="#C07C4B"/>
<path opacity="0.3" d="M21.0201 306.88C20.9301 306.86 20.8501 306.85 20.7601 306.84C4.10012 304.35 10.0901 342.24 24.7701 330.18C30.2001 325.72 29.2601 308.47 21.0201 306.88Z" fill="#F7DE77"/>
<path opacity="0.3" d="M94.0501 379.32C72.5501 373.72 53.5701 361.76 39.5401 344.49C32.3301 335.62 20.1301 343.93 26.1701 353.8C40.2601 376.86 63.9201 389.99 90.2501 396.85C101.44 399.76 105.19 382.22 94.0501 379.32Z" fill="#F7DE77"/>
<path opacity="0.3" d="M133.06 393.4C130.14 388.94 123.46 386.67 118.57 389.53C116.71 390.62 114.94 392.75 114.45 394.89C113.93 397.19 114.04 399.76 115.35 401.8C119.66 408.48 132.21 409.28 134.3 400.09C134.87 397.61 134.31 395.31 133.06 393.4Z" fill="#F7DE77"/>
<path opacity="0.5" d="M88.2501 222.28C81.5101 235.7 76.8401 249.78 74.3201 264.6C73.7701 267.83 78.7301 269.15 79.2801 265.9C81.7201 251.5 86.1401 237.87 92.7001 224.81C94.1801 221.87 89.7301 219.33 88.2501 222.28Z" fill="#F7F2A6"/>
<path opacity="0.5" d="M74.5201 276.12C73.3101 275.79 71.5801 276.58 71.3901 277.95C70.9701 281.03 70.5501 284.1 70.1301 287.18C69.9401 288.56 70.5101 289.91 71.9601 290.31C73.1701 290.64 74.9001 289.85 75.0901 288.48C75.5101 285.4 75.9301 282.33 76.3501 279.25C76.5401 277.87 75.9701 276.52 74.5201 276.12Z" fill="#F7F2A6"/>
<path opacity="0.5" d="M123.89 292.11C121.88 303.63 120.84 315.2 120.83 326.9C120.83 330.2 125.95 330.2 125.95 326.9C125.96 315.66 126.89 304.55 128.83 293.48C129.39 290.25 124.46 288.87 123.89 292.11Z" fill="#F7F2A6"/>
<path opacity="0.5" d="M127.4 272.29C126.94 274.29 126.48 276.28 126.02 278.28C125.28 281.49 130.22 282.86 130.96 279.64C131.42 277.64 131.88 275.65 132.34 273.65C133.08 270.45 128.14 269.08 127.4 272.29Z" fill="#F7F2A6"/>
<path opacity="0.5" d="M64.8702 186.28C63.8302 188.14 62.7802 190 61.7402 191.86C60.1202 194.74 64.5502 197.32 66.1602 194.45C67.2002 192.59 68.2502 190.73 69.2902 188.87C70.9102 185.98 66.4802 183.4 64.8702 186.28Z" fill="#F7F2A6"/>
<path opacity="0.5" d="M56.87 205.69C53.84 214.13 51.38 222.72 49.5 231.49C48.81 234.71 53.75 236.08 54.44 232.85C56.33 224.08 58.78 215.49 61.81 207.05C62.92 203.94 57.97 202.6 56.87 205.69Z" fill="#F7F2A6"/>
<defs>
<radialGradient id="paint0_radial_1_2669" cx="0" cy="0" r="1" gradientUnits="userSpaceOnUse" gradientTransform="translate(155.157 303.773) scale(219.454 159.1)">
<stop offset="0.18" stop-color="#FFAB2E"/>
<stop offset="0.56" stop-color="#E58520"/>
<stop offset="0.888" stop-color="#C95D12"/>
<stop offset="1" stop-color="#B54B00"/>
</radialGradient>
<linearGradient id="paint1_linear_1_2669" x1="-11.1322" y1="146.062" x2="367.388" y2="352.528" gradientUnits="userSpaceOnUse">
<stop offset="0.18" stop-color="#FFAB2E"/>
<stop offset="0.56" stop-color="#E58520"/>
<stop offset="1" stop-color="#C95D12"/>
</linearGradient>
<linearGradient id="paint2_linear_1_2669" x1="203.227" y1="162.231" x2="314.899" y2="204.541" gradientUnits="userSpaceOnUse">
<stop offset="0.0133" stop-color="#FDF4D5"/>
<stop offset="1" stop-color="#EBDCAA"/>
</linearGradient>
<linearGradient id="paint3_linear_1_2669" x1="157.076" y1="72.0706" x2="172.395" y2="95.0489" gradientUnits="userSpaceOnUse">
<stop offset="0.0425" stop-color="#D62E14"/>
<stop offset="1" stop-color="#BD2912"/>
</linearGradient>
<linearGradient id="paint4_linear_1_2669" x1="107.361" y1="95.1015" x2="166.706" y2="164.337" gradientUnits="userSpaceOnUse">
<stop offset="0.3013" stop-color="#FF4927"/>
<stop offset="1" stop-color="#D62E14"/>
</linearGradient>
<linearGradient id="paint5_linear_1_2669" x1="197.73" y1="176.74" x2="309.402" y2="219.051" gradientUnits="userSpaceOnUse">
<stop offset="0.0133" stop-color="#FDF4D5"/>
<stop offset="1" stop-color="#EBDCAA"/>
</linearGradient>
<linearGradient id="paint6_linear_1_2669" x1="161.182" y1="111.105" x2="210.938" y2="182.572" gradientUnits="userSpaceOnUse">
<stop offset="0.3013" stop-color="#FF4927"/>
<stop offset="0.5078" stop-color="#F94524"/>
<stop offset="0.7747" stop-color="#E93B1D"/>
<stop offset="1" stop-color="#D62E14"/>
</linearGradient>
<linearGradient id="paint7_linear_1_2669" x1="197.99" y1="172.095" x2="306.36" y2="213.155" gradientUnits="userSpaceOnUse">
<stop offset="0.0133" stop-color="#FDF4D5"/>
<stop offset="1" stop-color="#EBDCAA"/>
</linearGradient>
</defs>
</svg>

