<svg width="321" height="452" viewBox="0 0 321 452" fill="none" xmlns="http://www.w3.org/2000/svg">
<path d="M44.8301 282.26C44.8301 282.26 69.8201 430.66 74.3601 437.47C114.95 458.03 214.17 453.81 250.02 437.47C253.81 431.41 274.25 282.26 274.25 282.26H44.8301Z" fill="url(#paint0_linear_1_2031)"/>
<path d="M23.97 209.35C23.97 209.35 31.8799 261.85 37.6299 288.46C39.3899 296.62 87.9699 316.51 159.89 316.51C229.65 316.51 278.22 298.06 279.99 291.34C283.62 277.54 295.09 203.6 295.09 203.6L23.97 209.35Z" fill="url(#paint1_linear_1_2031)"/>
<path d="M0.449951 212.52C0.449951 212.52 41.48 254.28 160.78 254.28C277.71 254.28 320.66 213.78 320.66 213.78L316.66 181.89C316.66 181.89 234.27 155.55 155.12 155.55C90.1901 155.55 3.54004 181.43 3.54004 181.43L0.449951 212.52Z" fill="#D4C8C4"/>
<path d="M3.53004 181.42C3.50004 157.75 88.24 133.84 160.97 134.15C232.5 134.45 316.74 158.28 316.65 181.89C316.56 205.79 230.03 229.49 155.91 228.53C86.6199 227.63 3.55004 204.85 3.53004 181.42Z" fill="#FAF7F3"/>
<path opacity="0.5" d="M24.3999 176.5C24.3999 176.5 55.5899 216.97 160.69 216.97C259.33 216.97 296.14 177.35 296.14 177.35C296.14 177.35 270.4 62.63 159.89 62.63C46.0199 62.62 24.3999 176.5 24.3999 176.5Z" fill="#DBD0CB"/>
<path d="M160.7 216.97C259.34 216.97 296.15 177.35 296.15 177.35C296.15 177.35 247.88 141.75 159.66 141.75C71.4399 141.75 24.3999 176.5 24.3999 176.5C24.3999 176.5 55.6 216.97 160.7 216.97Z" fill="#D4C8C4"/>
<path d="M160.7 216.97C225.68 216.97 263.82 199.78 282.29 188.04C264.42 176.53 224.33 156.65 160.5 156.65C93.2 156.65 53.0499 177.2 37.1399 187.51C54.4799 199.49 91.63 216.97 160.7 216.97Z" fill="#D7C6B8"/>
<path opacity="0.2" d="M159.89 62.62C46.0199 62.62 24.3999 176.5 24.3999 176.5C24.3999 176.5 26.1999 178.83 30.3899 182.38C34.5199 165.17 56.2299 92.35 125.19 73.73C135.45 84.72 174.14 93.02 197.5 74.71C264.68 95.48 286.9 171.7 288.95 183.46C293.87 179.79 296.14 177.35 296.14 177.35C296.14 177.35 270.4 62.62 159.89 62.62Z" fill="#D4C8C4"/>
<path opacity="0.8" d="M110.27 87.09C110.27 87.09 62.09 102.19 41.23 175.55C41.23 175.55 51.3001 182.74 62.0901 186.34C62.0901 186.33 67.84 126.64 110.27 87.09Z" fill="white"/>
<path d="M135.13 71.9699C135.13 71.9699 158.01 86.2399 186.27 72.7799C186.27 72.7799 165.28 64.4299 135.13 71.9699Z" fill="#D4C8C4"/>
<path opacity="0.3" d="M125.19 73.73C56.2399 92.35 34.5199 165.17 30.3899 182.38C41.1199 191.47 67.5599 208.53 119.69 214.68C121.48 154.6 139.33 101.98 147.12 83.84C137.27 81.77 129.13 77.95 125.19 73.73Z" fill="white"/>
<path d="M180.97 74.99C191.24 28.62 196.63 4.09998 196.63 4.09998H173.18C173.18 4.09998 166.83 30.66 155.81 78.27C162.99 78.98 171.6 78.44 180.97 74.99Z" fill="#F5EEE3"/>
<path d="M173.19 4.09996C173.19 4.09996 184.27 10.73 196.64 4.09996C196.64 4.09996 186.11 -2.94004 173.19 4.09996Z" fill="#D4C8C4"/>
<path d="M154.26 84.99C142.19 137.09 129.7 190.95 128.97 193.89C132.93 198.92 150.19 199.28 154.14 194.25C155.25 190.74 167.47 135.94 179.09 83.5C170.88 85.58 162.25 85.88 154.26 84.99Z" fill="url(#paint2_linear_1_2031)"/>
<path opacity="0.5" d="M112.64 420.15C112.38 414.37 105.41 407.46 99.44 407.72C95.06 407.92 91.41 411.26 91.39 415.77C91.37 420.88 94.3202 426.37 99.1202 428.51C101.56 429.6 103.75 429.98 106.28 428.92C107.41 428.44 108.45 427.72 109.28 426.8C111.79 425.07 112.75 422.64 112.64 420.15Z" fill="#80654C"/>
<path opacity="0.7" d="M119.85 389.25C118.09 387.36 115.09 386.95 112.8 387.91C110.57 388.85 109.15 390.88 108.89 393.26C107.71 396.25 107.78 399.8 109.66 402.5C110.85 404.21 112.28 405.3 114.38 405.58C116.37 405.85 118.37 405.28 119.8 403.8C123.75 399.73 123.69 393.37 119.85 389.25Z" fill="#6E5741"/>
<path opacity="0.7" d="M142.34 419.37C140.27 411.22 127.81 404.53 123.67 412.77C122.09 415.91 121.32 419.31 122.29 422.78C123.1 425.66 125.17 428.25 127.86 429.55C131.78 431.44 136.5 431.17 139.75 428.03C142.49 425.36 143.08 422.27 142.34 419.37Z" fill="#6E5741"/>
<path opacity="0.7" d="M158.43 396.66C158.22 390.72 155.21 385.03 149.91 385.75C142.46 386.75 139.4 401.6 144.47 406.67C145.87 408.07 148.16 409.12 150.16 409.03C156.06 408.77 158.64 402.59 158.43 396.66Z" fill="#6E5741"/>
<path opacity="0.5" d="M180.49 414.34C177.33 410.73 172.73 407.85 168.23 408.07C160.12 408.46 161.22 420.49 164.05 425.38C166.33 429.33 170.94 431.85 175.47 431.71C178.87 431.61 182.27 429.78 184.17 426.94C186.02 424.18 184.75 421.4 183.39 418.62C182.69 417.18 181.69 415.71 180.49 414.34Z" fill="#80654C"/>
<path opacity="0.7" d="M204.09 394.6C203.62 389.67 200.94 384.67 196.86 383.74C193.13 382.89 189.95 384.41 187.77 387.44C185.82 390.13 185.6 393.97 186.48 397.07C187.61 401.02 190.57 403.58 194.3 404.98C196.15 405.68 198.86 405.13 200.5 404.17C203.41 402.47 204.46 398.56 204.09 394.6Z" fill="#80654C"/>
<path opacity="0.5" d="M214.25 425.28C210.97 418.41 201.01 414.17 197.25 422.17C195.63 425.63 195.42 429.03 197.14 432.51C198.48 435.22 200.95 437.04 203.79 437.93C205.82 438.57 207.78 438.26 209.45 437.38C211.56 436.26 213.73 435.49 214.7 433.02C215.73 430.4 215.4 427.68 214.25 425.28Z" fill="#6E5741"/>
<path opacity="0.5" d="M235.19 403.86C233.16 400.85 229.6 398.84 225.83 399.34C221.68 399.9 217.71 404.33 217.21 408.43C216.69 412.69 219.82 418.45 224.06 419.62C229.56 421.13 236.02 416.16 236.84 410.71C237.21 408.27 236.54 405.85 235.19 403.86Z" fill="#80654C"/>
<path opacity="0.5" d="M242.24 376.01C236.51 372.48 228.74 376.93 228.9 383.66C228.99 387.18 231.4 391.6 234.74 393.04C239.48 395.08 241.22 390.2 242.81 386.81C244.59 383.02 246.83 378.84 242.24 376.01Z" fill="#80654C"/>
<path opacity="0.5" d="M97.8702 374.82C97.3402 374 96.7101 373.34 96.0301 372.78C94.2301 370.45 91.48 368.97 88.39 368.99C88.27 368.99 88.1501 369.02 88.0301 369.02C86.9601 368.86 85.8702 368.91 84.8502 369.24C80.5002 370.65 78.2801 374.72 79.2301 379.14C80.1601 383.48 83.5602 386.41 87.5602 387.87C90.1802 388.82 93.51 387.72 95.39 385.8C95.56 385.63 95.7002 385.44 95.8502 385.25C98.9402 383.01 99.9202 378 97.8702 374.82Z" fill="#80654C"/>
<path opacity="0.7" d="M210.7 372.95C209.28 370.44 206.2 369.02 203.56 371.54C200.34 374.6 203.99 383.43 208.8 380.44C211.91 378.5 212.01 375.26 210.7 372.95Z" fill="#80654C"/>
<path opacity="0.5" d="M158.98 432.72C158.17 431.75 156.93 431.08 155.78 431.13C153.36 431.24 152.05 432.91 151.75 435.16C151.39 437.87 153.48 440.06 155.84 440.89C157.39 441.44 159.67 440.55 160.39 439.04C161.6 436.5 160.93 434.19 158.98 432.72Z" fill="#80654C"/>
<defs>
<linearGradient id="paint0_linear_1_2031" x1="130.484" y1="422.824" x2="164.397" y2="297.346" gradientUnits="userSpaceOnUse">
<stop stop-color="#E6C499"/>
<stop offset="0.0664" stop-color="#E3BF94"/>
<stop offset="0.2959" stop-color="#DAB486"/>
<stop offset="0.4964" stop-color="#D7B081"/>
<stop offset="0.7997" stop-color="#C99D70"/>
<stop offset="1" stop-color="#BD8E62"/>
</linearGradient>
<linearGradient id="paint1_linear_1_2031" x1="157.762" y1="319.764" x2="159.395" y2="215.289" gradientUnits="userSpaceOnUse">
<stop offset="0.1179" stop-color="#D7B081"/>
<stop offset="0.2819" stop-color="#D7B081"/>
<stop offset="0.3406" stop-color="#D4AC7E"/>
<stop offset="0.7422" stop-color="#C39669"/>
<stop offset="1" stop-color="#BD8E62"/>
</linearGradient>
<linearGradient id="paint2_linear_1_2031" x1="155.539" y1="134.555" x2="171.07" y2="75.6423" gradientUnits="userSpaceOnUse">
<stop stop-color="#EBE3D9"/>
<stop offset="0.9542" stop-color="#E1D6C6"/>
<stop offset="1" stop-color="#E0D5C5"/>
</linearGradient>
</defs>
</svg>
