<svg width="332" height="440" viewBox="0 0 332 440" fill="none" xmlns="http://www.w3.org/2000/svg">
<path d="M36.1299 228.48L170.27 93.1101L314.2 215.19L175.02 351.41L36.1299 228.48Z" fill="#D9BE84"/>
<path d="M102.75 73.5601L105.29 82.4601L84.47 220.78C84.47 220.78 9.37997 172.34 3.96997 151.56C-1.44003 130.78 34.07 101.54 49.75 90.0901C63.61 79.9901 102.75 73.5601 102.75 73.5601Z" fill="#D1721E"/>
<path d="M110.08 102.97C110.08 102.97 89.24 88.63 63.69 100.62C34.92 114.13 12.0101 163.45 34.3301 189.29C44.4001 200.95 101.12 222.62 101.12 222.62L109.38 110.18L110.08 102.97Z" fill="#732C09"/>
<path d="M79.0399 114.207C86.0967 111.284 89.4478 103.194 86.5247 96.137C83.6016 89.0802 75.5112 85.7292 68.4544 88.6523C61.3975 91.5754 58.0466 99.6656 60.9697 106.722C63.8928 113.779 71.983 117.13 79.0399 114.207Z" fill="#5C1D04"/>
<path d="M72 110.16C77.5891 110.16 82.1201 105.629 82.1201 100.04C82.1201 94.4509 77.5891 89.92 72 89.92C66.4109 89.92 61.8799 94.4509 61.8799 100.04C61.8799 105.629 66.4109 110.16 72 110.16Z" fill="url(#paint0_linear_1_2765)"/>
<path d="M69.66 93.12C70.64 94.1 70.3702 95.95 69.0702 97.25C67.7702 98.55 65.9201 98.82 64.9401 97.84C63.9601 96.86 64.2301 95.01 65.5301 93.71C66.8301 92.4 68.68 92.14 69.66 93.12Z" fill="#AB8878"/>
<path d="M20.44 166.88C23.73 172.31 28.17 176.87 33.72 180.03C38.65 182.85 45.63 184.03 51.28 183.41C57.26 182.76 62.1699 176.74 60.1599 170.36C58.7499 165.9 55.62 162.16 51.76 159.81C49.2 158.25 45.19 156.47 44.01 153.49C42.01 148.44 44.6899 144.73 45.1399 139.83C46.2299 128.15 34.3101 119.93 24.7901 128.3C14.4001 137.45 13.52 155.46 20.44 166.88Z" fill="#FFE7B1"/>
<path opacity="0.2" d="M60.1599 170.36C58.7499 165.9 55.62 162.16 51.76 159.81C51.03 159.37 50.18 158.9 49.31 158.4C46.82 159.91 43.7601 160.82 40.1201 160.82C18.3701 160.82 17.24 128.93 36.59 125.46C32.95 124.25 28.67 124.9 24.8 128.31C14.41 137.45 13.5199 155.46 20.4499 166.87C23.7399 172.3 28.1799 176.86 33.7299 180.02C38.6599 182.84 45.64 184.02 51.29 183.4C57.25 182.76 62.1599 176.74 60.1599 170.36Z" fill="#D29F68"/>
<path d="M60.55 134.24C59.36 128.02 64.1499 116.03 88.6599 90.62C113.17 65.21 132.28 48.57 152.3 41.37C172.31 34.17 244.5 53.29 266.31 64.08C288.12 74.87 326.35 97.36 330.62 123C330.62 123 322.3 165.05 258.21 221.49C194.12 277.93 93.6101 185.74 93.6101 185.74C93.6101 185.74 63.47 149.53 60.55 134.24Z" fill="url(#paint1_linear_1_2765)"/>
<path opacity="0.3" d="M151.46 40.52L157.97 99.18L88.0802 152.62C88.0802 152.62 59.8901 145.57 60.4801 131.48C61.0701 117.39 106.77 68.19 151.46 40.52Z" fill="#C45610"/>
<path d="M83.7099 155.82C83.7099 155.82 82.0198 123.78 105.63 98.14C133.81 67.54 163.92 62.21 181.19 61.37C202.1 60.36 299.25 72.5 306.8 156.99L196.99 194.57C196.99 194.58 107.2 186.95 83.7099 155.82Z" fill="#732C09"/>
<path opacity="0.5" d="M91.24 152.21C91.24 117.8 105.69 100.06 113.23 90.53C110.69 92.88 108.15 95.41 105.63 98.14C88.2499 117.01 84.5801 139.34 83.8501 149.81L91.24 152.21Z" fill="#4F1C02"/>
<path d="M119.46 127.68C115.1 130.83 110.34 132.34 106.53 129.33C104.11 127.41 103.93 123.81 104.4 120.76C105.5 113.64 109.36 106.8 114.57 101.88C118.17 98.4801 127.27 92.0501 132.34 95.9301C137.44 99.8401 133.31 110.02 131.07 114.36C129.25 117.91 124.63 123.95 119.46 127.68Z" fill="url(#paint2_linear_1_2765)"/>
<path d="M305.88 37.3301C297.46 30.4001 256.19 23.0801 240.25 34.8001C229.84 42.4501 212.46 79.0901 216.77 93.7301C218.81 100.66 222.29 106.88 226.62 112.29C239.11 113.44 253.42 101.63 264.44 104.16C273.49 106.24 281.46 119.39 281.89 131.94C285.29 130.73 293.78 127.87 296.34 127.1C309.07 115 322.22 99.2601 322.68 87.6301C323.04 78.4801 313.2 43.3501 305.88 37.3301Z" fill="url(#paint3_linear_1_2765)"/>
<path opacity="0.5" d="M297.56 111.25C290.12 111.25 283.24 109.5 277.18 106.42C275.93 107.64 274.6 108.79 273.22 109.88C278.12 115.34 281.61 123.75 281.89 131.94C285.29 130.73 293.78 127.87 296.34 127.1C302.37 121.37 308.48 114.81 313.3 108.27C308.28 110.19 302.94 111.25 297.56 111.25Z" fill="#E0B24E"/>
<path d="M219.15 110.79C232.76 115.33 232.97 103.7 246.59 104.88C270.05 106.91 277.78 125.88 281.9 131.94C294.03 117.99 314.16 96.1 314.59 85.39C314.95 76.23 303.37 39.42 296.05 33.39C287.63 26.46 241.83 22.17 229.35 34.22C220.05 43.2 204.38 76.84 208.69 91.47C210.81 98.73 214.53 105.2 219.15 110.79Z" fill="url(#paint4_linear_1_2765)"/>
<path opacity="0.5" d="M279.1 59.64C276.86 58.76 270.83 70.39 271.43 74.19C272.03 78 279.49 90.2 281.55 88.63C284.44 86.43 276.79 74.51 276.79 74.51C276.79 74.51 281.56 60.61 279.1 59.64Z" fill="#EAC445"/>
<path opacity="0.5" d="M271.04 95.19C273.32 93.82 264.33 82 262.32 80.88C260.31 79.75 248.08 82.2 247.91 84.23C247.74 86.26 260.36 85.86 260.36 85.86C260.36 85.86 267.83 97.11 271.04 95.19Z" fill="#EAC445"/>
<path opacity="0.5" d="M247.39 71.18C246.28 74.04 259.4 70.5901 260.85 69.5701C262.57 68.3601 270.49 55.1801 267.45 54.6001C264.4 54.0201 257.93 65.9601 257.93 65.9601C257.93 65.9601 248.68 67.83 247.39 71.18Z" fill="#EAC445"/>
<path opacity="0.7" d="M265.09 71.65C265.42 72.44 266.46 72.86 267.38 72.49C268.24 72.15 268.71 71.23 268.43 70.43C268.16 69.65 267.26 69.23 266.43 69.41C265.4 69.64 264.71 70.74 265.09 71.65Z" fill="#C49758"/>
<path opacity="0.7" d="M258.61 75.6401C258.98 76.5301 260.14 76.9901 261.18 76.5801C262.15 76.1901 262.67 75.1701 262.36 74.2801C262.06 73.4101 261.05 72.9401 260.12 73.1301C258.96 73.3801 258.19 74.6201 258.61 75.6401Z" fill="#C49758"/>
<path opacity="0.7" d="M264.68 78.7501C265.05 79.6401 266.21 80.1001 267.25 79.6901C268.22 79.3001 268.74 78.2801 268.43 77.3901C268.13 76.5201 267.12 76.0501 266.19 76.2401C265.03 76.4901 264.26 77.7301 264.68 78.7501Z" fill="#C49758"/>
<path opacity="0.7" d="M248.72 36.55C248.72 36.55 272.39 66.45 251.21 111.3C230.03 156.15 214.15 61.47 248.72 36.55Z" fill="#E0C5A6"/>
<path d="M164.91 10.1001C172.75 3.82006 182.13 1.99006 185.9 1.41006C195.88 -0.129941 231.37 2.28005 235.75 7.56005C239.87 12.5201 258.41 38.0601 253.28 72.5301C250.13 93.6701 217.03 113.76 217.03 113.76C217.03 113.76 137.45 79.15 163.54 12.5901L164.91 10.1001Z" fill="url(#paint5_linear_1_2765)"/>
<path opacity="0.5" d="M250.55 80.8901C242.22 77.5501 237.61 75.8501 236.87 75.8501V77.7901L236.73 78.5401C237.56 78.6901 243.18 80.8601 249.26 83.2901C249.73 82.4901 250.16 81.6901 250.55 80.8901Z" fill="#FFF5CC"/>
<g opacity="0.5">
<path d="M239.96 69.0301L253.58 70.2401C253.69 69.3401 253.78 68.4401 253.86 67.5601L240.21 66.3501L239.96 69.0301Z" fill="#FFF5CC"/>
<path d="M237.69 47.6L252.56 44.39C252.38 43.5 252.19 42.62 251.99 41.75L234.74 45.48L236.25 58.82L254.07 56.63C254.03 55.72 253.97 54.82 253.9 53.93L238.62 55.81L237.69 47.6Z" fill="#FFF5CC"/>
<path d="M243.12 18.6801L225.82 26.1501L231.67 37.6001L249.15 32.0701C248.84 31.2101 248.53 30.3601 248.21 29.5401L233.04 34.3401L229.54 27.4901L244.4 21.0701C243.97 20.2301 243.54 19.4401 243.12 18.6801Z" fill="#FFF5CC"/>
<path d="M221.28 18.6001C221.78 18.3001 229.21 14.3 237.53 9.84004C236.86 8.92004 236.29 8.20004 235.86 7.67004C228.03 11.87 220.17 16.09 219.81 16.33L221.28 18.6001Z" fill="#FFF5CC"/>
</g>
<path d="M190.24 110.19C205.56 112.61 241.02 90.69 244.94 73.64C248.85 56.6 239.21 16.29 227.33 10.72C213.65 4.31002 176.51 2.56001 164.91 10.09C150.1 19.71 142.17 52.7 142.55 61.79C143.41 82.36 173.54 107.55 190.24 110.19Z" fill="#FFF5CC"/>
<path d="M208.73 106.31C224.5 99.51 242.24 85.42 244.94 73.65C248.85 56.61 239.21 16.3 227.33 10.73C220.22 7.40003 206.8 5.33003 193.9 5.16003C204.65 6.99003 225.59 11.42 229.92 18.64C235.8 28.45 244.14 58.61 240.71 74.3C238.89 82.64 223.13 95.79 208.73 106.31Z" fill="#FFFBE8"/>
<path opacity="0.2" d="M164.91 10.1001C150.1 19.7201 142.17 52.7101 142.55 61.8001C142.78 67.3301 145.14 73.1901 148.77 78.8601L150.82 79.3601C150.82 79.3601 147.16 61.0701 147.8 54.9701C148.54 47.9201 153.87 22.5901 165.62 9.68005C165.38 9.82005 165.13 9.95007 164.91 10.1001Z" fill="#E0B24E"/>
<path opacity="0.5" d="M211.86 35.25C212.49 37.74 200.35 43.53 196.4 42.39C192.46 41.24 180.58 31.72 182.51 29.75C185.22 26.99 196.78 36.68 196.78 36.68C196.78 36.68 211.17 32.52 211.86 35.25Z" fill="#EAC445"/>
<path opacity="0.5" d="M174.18 39.97C175.94 37.74 187.2 48.84 188.12 51.12C189.04 53.4 184.8 65.99 182.64 65.89C180.47 65.8 182.6 52.52 182.6 52.52C182.6 52.52 171.71 43.1 174.18 39.97Z" fill="#EAC445"/>
<path opacity="0.5" d="M196.35 68.19C193.18 68.97 198.59 55.58 199.87 54.19C201.38 52.54 214.72 44.9101 214.92 48.2101C215.12 51.5101 203.28 57.7701 203.28 57.7701C203.28 57.7701 200.06 67.27 196.35 68.19Z" fill="#EAC445"/>
<path opacity="0.7" d="M198.24 49.4301C197.45 48.9801 197.15 47.8201 197.66 46.8901C198.14 46.0201 199.17 45.6501 199.98 46.0601C200.77 46.4501 201.09 47.4601 200.79 48.3101C200.41 49.3701 199.15 49.9501 198.24 49.4301Z" fill="#C49758"/>
<path opacity="0.7" d="M193.16 55.74C192.27 55.23 191.94 53.94 192.51 52.9C193.05 51.93 194.2 51.52 195.1 51.97C195.98 52.41 196.34 53.53 196.01 54.49C195.59 55.67 194.18 56.32 193.16 55.74Z" fill="#C49758"/>
<path opacity="0.7" d="M190.69 48.9C189.8 48.39 189.47 47.1 190.04 46.06C190.58 45.09 191.73 44.68 192.63 45.13C193.51 45.57 193.87 46.69 193.54 47.65C193.12 48.84 191.71 49.49 190.69 48.9Z" fill="#C49758"/>
<path d="M129.58 101.07C129.58 101.07 135.43 88.1401 156.79 81.1701C178.15 74.2001 220.43 80.6101 220.43 80.6101L233.92 84.5501C233.92 84.5501 256.29 106.25 264.5 122.1C264.5 122.1 213.46 142.56 180.62 171.12C180.63 171.11 133.63 118.49 129.58 101.07Z" fill="url(#paint6_linear_1_2765)"/>
<path opacity="0.3" d="M185.78 125.92C183.46 112.85 181.58 93.8201 179.76 77.9801C171.36 78.2101 163.14 79.0901 156.78 81.1701C135.42 88.1401 129.57 101.07 129.57 101.07C133.62 118.5 180.61 171.12 180.61 171.12C185.07 167.24 189.86 163.52 194.82 159.98C191.47 145.85 188.32 140.22 185.78 125.92Z" fill="#C45610"/>
<path d="M188.769 107.375C190.524 99.9417 185.921 92.4928 178.488 90.7375C171.054 88.9823 163.605 93.5854 161.85 101.019C160.095 108.452 164.698 115.901 172.131 117.656C179.565 119.412 187.014 114.809 188.769 107.375Z" fill="#5C1D04"/>
<path d="M174.19 112.81C179.779 112.81 184.31 108.279 184.31 102.69C184.31 97.1009 179.779 92.5701 174.19 92.5701C168.601 92.5701 164.07 97.1009 164.07 102.69C164.07 108.279 168.601 112.81 174.19 112.81Z" fill="url(#paint7_linear_1_2765)"/>
<path d="M171.84 95.7701C172.82 96.7501 172.55 98.6001 171.25 99.9001C169.95 101.2 168.1 101.47 167.12 100.49C166.14 99.5101 166.41 97.6601 167.71 96.3601C169.01 95.0501 170.86 94.7901 171.84 95.7701Z" fill="#AB8878"/>
<path d="M128.46 102.08C128.46 102.08 143.53 135.81 144.2 177.86L181.53 186.85L203.18 176.32C203.18 176.32 194.21 146.11 193.89 102.91C193.89 102.91 185.23 108.38 176.13 114.34C154.77 110.4 128.46 102.08 128.46 102.08Z" fill="url(#paint8_linear_1_2765)"/>
<path opacity="0.3" d="M197.43 148.25C195.63 136.26 194.07 121 193.91 103.61L176.73 115.88C176.4 117.49 181.58 159.35 181.58 159.35L197.43 148.25Z" fill="#C45610"/>
<path d="M240.33 147.22C237.69 116.72 208.63 111.67 194.21 115.1C194.13 123.16 195.86 142.53 195.86 142.53C195.86 142.53 165.87 159.39 142.76 141.64C138.31 145.33 132.78 146.89 127.05 148.59C126.09 155.04 126.17 161.54 126.17 161.54C155.74 197.02 242.66 174.14 240.33 147.22Z" fill="#732C09"/>
<path opacity="0.5" d="M195.86 142.53C195.86 142.53 172.93 155.42 151.73 146.79L156.77 158.3C156.77 158.3 196.07 157.36 209.47 136.86L194.41 122.3C194.85 131.22 195.86 142.53 195.86 142.53Z" fill="#4F1C02"/>
<path d="M136.45 81.4501C141.26 81.4501 145.84 82.1801 150.12 83.5301C151.92 82.6701 153.78 81.9301 155.66 81.2401C156.53 79.4301 157.02 77.4201 157.02 75.2801C157.02 67.6401 150.83 61.4501 143.19 61.4501C135.55 61.4501 129.36 67.6401 129.36 75.2801C129.36 77.6501 129.96 79.8701 131.01 81.8101C132.82 81.5901 134.63 81.4501 136.45 81.4501Z" fill="#5C1D04"/>
<path d="M135.09 81.49C135.54 81.48 136 81.45 136.45 81.45C140.14 81.45 143.68 81.89 147.06 82.7C150.02 80.93 152.01 77.71 152.01 74.01C152.01 68.42 147.48 63.89 141.89 63.89C136.3 63.89 131.77 68.42 131.77 74.01C131.77 76.98 133.05 79.64 135.09 81.49Z" fill="url(#paint9_linear_1_2765)"/>
<path d="M139.55 67.09C140.53 68.07 140.26 69.92 138.96 71.22C137.66 72.52 135.81 72.79 134.83 71.81C133.85 70.83 134.12 68.98 135.42 67.68C136.72 66.37 138.57 66.11 139.55 67.09Z" fill="#AB8878"/>
<path d="M105.35 154.05C108.37 160.21 118.09 165.83 127.09 167.07C132.94 167.88 138.66 166.6 143.69 164.11C151.3 160.34 159.21 149.04 160.48 140.31C161.46 133.55 158.41 126.73 150.9 126.41C141.88 126.03 140.92 137.09 133.34 139.01C125.44 141.01 116.48 133.93 108.97 138.7C103.46 142.22 102.35 147.94 105.35 154.05Z" fill="#FFE7B1"/>
<path d="M145.41 134.91C145.41 134.94 145.42 134.97 145.42 135.01C145.49 136.26 142.08 139.81 140.26 141.3C137.79 143.32 135.89 144.33 133.16 144.82C130.8 145.25 127.21 144.85 122.76 143.06C122.4 142.91 122.08 142.58 122.04 142.19C122.03 142.1 122.04 142 122.09 141.92C122.37 141.48 123.46 141.82 123.83 141.92C126.3 142.57 129.42 142.68 131.11 142.54C133.76 142.31 136.59 141.4 138.84 139.81C140.69 138.5 143.36 135.72 143.77 135.17C144.14 134.7 145.28 133.88 145.41 134.91Z" fill="#E1B991"/>
<path d="M45.02 161.99C44.99 161.99 44.9599 162 44.9199 162C43.6699 162.1 42.5099 161.11 40.9899 159.32C38.9099 156.9 37.86 155.02 37.31 152.3C36.83 149.95 37.14 146.35 38.84 141.87C38.98 141.5 39.2999 141.18 39.6899 141.13C39.7799 141.12 39.8799 141.13 39.9699 141.17C40.4099 141.44 40.0999 142.54 40.0099 142.91C39.4199 145.39 39.37 148.52 39.55 150.2C39.83 152.85 40.8099 155.66 42.4599 157.87C43.8099 159.69 44.1799 159.96 44.7299 160.36C45.2099 160.72 46.04 161.84 45.02 161.99Z" fill="#E1B991"/>
<path opacity="0.2" d="M156.4 128.25C156.45 128.77 156.52 129.29 156.54 129.82C157.2 144.5 143.57 157.01 129.35 157.01C118.65 157.01 109.91 150.86 105.42 142.1C103.17 145.42 103.18 149.64 105.34 154.06C108.36 160.22 118.08 165.84 127.08 167.08C132.93 167.89 138.65 166.61 143.68 164.12C151.29 160.35 159.2 149.05 160.47 140.32C161.18 135.55 159.86 130.77 156.4 128.25Z" fill="#D29F68"/>
<path d="M164.059 162.345C165.814 154.912 161.211 147.463 153.777 145.708C146.344 143.952 138.895 148.555 137.14 155.989C135.385 163.422 139.988 170.871 147.421 172.626C154.854 174.382 162.303 169.778 164.059 162.345Z" fill="#5C1D04"/>
<path d="M148.88 168.24C154.469 168.24 159 163.709 159 158.12C159 152.531 154.469 148 148.88 148C143.291 148 138.76 152.531 138.76 158.12C138.76 163.709 143.291 168.24 148.88 168.24Z" fill="url(#paint10_linear_1_2765)"/>
<path d="M146.54 151.2C147.52 152.18 147.25 154.03 145.95 155.33C144.65 156.63 142.8 156.9 141.82 155.92C140.84 154.94 141.11 153.09 142.41 151.79C143.71 150.48 145.56 150.22 146.54 151.2Z" fill="#AB8878"/>
<path d="M59.22 134.48L93.49 242.85C93.49 242.85 156.57 275.57 199.4 257.69C242.24 239.81 273.61 194.61 273.61 194.61C273.61 194.61 269.35 165.21 266.25 122.06C266.25 122.06 221.33 135.24 173.94 176.39C173.94 176.39 129.25 161.89 96.1899 154.8C63.1399 147.73 59.22 134.48 59.22 134.48Z" fill="url(#paint11_linear_1_2765)"/>
<path opacity="0.3" d="M266.25 122.07C266.25 122.07 253.23 125.9 233.82 135.84C214.26 146.56 190.38 161.54 173.72 178.29L175.94 207.82C175.94 207.82 243.09 197.39 271.3 176.33C269.82 163.53 267.88 144.69 266.25 122.07Z" fill="#C45610"/>
<path d="M30.41 179.01C30.41 179.01 53.5301 148.66 68.8101 163.93C100.91 196.03 167.09 201.73 179.28 199.18C192.81 196.35 235.96 162.82 268.98 154.49C284.19 150.65 297.96 144.17 308.57 155.82C308.57 155.82 247.16 252.35 177.78 243.1C108.38 233.85 30.41 179.01 30.41 179.01Z" fill="#732C09"/>
<path d="M137.68 210.13C137.68 210.13 137.87 198.94 156.91 203.38C175.95 207.82 186.26 203.72 201.77 195.28C217.29 186.85 232.46 183.47 238.2 201.35C238.19 201.36 190.3 221.6 137.68 210.13Z" fill="url(#paint12_linear_1_2765)"/>
<path opacity="0.7" d="M40.3301 179.69C40.3301 179.69 40.5001 172.61 48.0901 168.56C55.6801 164.51 63.4801 163.75 72.5801 174.37C81.6801 184.99 99.5199 187.7 100.91 193.26C102.26 198.66 97.8401 201.28 97.8401 201.28C97.8401 201.28 50.2801 189.31 40.3301 179.69Z" fill="url(#paint13_linear_1_2765)"/>
<path d="M250.03 195.98C256.55 198.09 267.35 195.01 274.5 189.39C279.15 185.74 282.21 180.74 283.91 175.4C286.49 167.31 283.86 153.76 278.46 146.79C274.28 141.39 267.25 138.84 261.81 144.02C255.27 150.24 262.56 158.62 258.67 165.4C254.62 172.47 243.3 173.99 241.51 182.71C240.21 189.12 243.55 193.89 250.03 195.98Z" fill="#FFE7B1"/>
<path opacity="0.2" d="M278.46 146.79C278.22 146.48 277.96 146.17 277.7 145.88C279.32 149.35 280.31 153.18 280.49 157.19C281.15 171.87 267.52 184.38 253.3 184.38C249.11 184.38 245.24 183.41 241.79 181.74C241.69 182.06 241.58 182.37 241.51 182.71C240.2 189.12 243.54 193.89 250.02 195.98C256.54 198.09 267.34 195.01 274.49 189.39C279.14 185.74 282.2 180.74 283.9 175.4C286.49 167.31 283.85 153.76 278.46 146.79Z" fill="#D29F68"/>
<path d="M106.08 176.23C113.72 176.23 119.91 182.42 119.91 190.06C119.91 197.7 113.72 203.89 106.08 203.89C98.4401 203.89 92.25 197.7 92.25 190.06C92.25 182.42 98.4401 176.23 106.08 176.23Z" fill="#5C1D04"/>
<path d="M104.78 199.09C110.369 199.09 114.9 194.559 114.9 188.97C114.9 183.381 110.369 178.85 104.78 178.85C99.1909 178.85 94.6599 183.381 94.6599 188.97C94.6599 194.559 99.1909 199.09 104.78 199.09Z" fill="url(#paint14_linear_1_2765)"/>
<path d="M102.43 182.04C103.41 183.02 103.14 184.87 101.84 186.17C100.54 187.47 98.6901 187.74 97.7101 186.76C96.7301 185.78 97.0002 183.93 98.3002 182.63C99.6102 181.33 101.46 181.07 102.43 182.04Z" fill="#AB8878"/>
<path d="M2.10999 153.54C2.10999 153.54 85.8 293.97 212.47 420.65C212.47 420.65 320.23 163.86 331.12 125.45C331.12 125.45 318.21 149.5 294.01 167.97C269.81 186.44 251.68 197.65 223.51 206.68C195.35 215.7 164.48 213.76 164.48 213.76C164.48 213.76 135.13 212.58 111.1 205.83C87.0701 199.08 73.4901 195.71 63.1201 190.65C52.7501 185.59 36.2999 179.77 23.5699 171.68C10.8499 163.58 2.10999 153.54 2.10999 153.54Z" fill="url(#paint15_linear_1_2765)"/>
<path opacity="0.5" d="M294.02 167.97C269.82 186.44 251.69 197.65 223.52 206.68C195.36 215.7 164.49 213.76 164.49 213.76C164.49 213.76 135.14 212.58 111.11 205.83C87.0801 199.08 73.4999 195.71 63.1299 190.65C54.2599 186.33 29.8199 174.92 15.6899 166.04C18.8399 170.77 36.6899 189.87 60.9299 200.37C87.5599 211.91 99.7001 205.22 146.56 225.01C177.85 238.23 199.24 219.51 216.07 216.07C243.66 210.43 258.5 212.74 287.62 185.13C304.83 168.81 313.73 164.06 317.79 162.69C324.44 145.36 329.25 132.12 331.14 125.45C331.13 125.45 318.22 149.5 294.02 167.97Z" fill="#F8B34E"/>
<path opacity="0.2" d="M250.99 220.16C245.51 223.98 240.09 228.07 233.42 229.53C224.52 231.48 215.51 225.44 210.97 217.47C194.94 222.86 174.77 236.92 146.55 225C99.7801 205.25 87.5901 211.87 61.0701 200.42C58.9301 214.03 60.0201 231.6 74.9901 235.32C86.3001 238.13 96.6902 227.02 107.61 226.05C114.13 225.47 121.45 228.5 123.75 234.63C131.65 255.67 95.3201 262.51 98.0301 283.23C98.8701 289.64 102.63 295.39 107.4 299.76C122.2 313.31 158.91 316.39 163.57 291.25C165.85 278.97 154.1 274.39 153.58 262.7C152.78 244.71 186.9 235.77 199.35 241.69C208.75 246.16 213.77 253.82 214.47 264.1C215.16 274.19 209.76 286.63 218.11 294.61C222.58 298.88 229.18 300.48 235.32 299.76C241.46 299.04 247.2 296.21 252.25 292.64C266.96 282.22 279.33 260.07 279.25 241.97C279.22 234.1 278.94 222.59 273.5 216.28C267.94 209.83 256.75 216.15 250.99 220.16Z" fill="#D36812"/>
<path d="M255.85 316.31C268.83 284.84 282.92 250.42 295.41 219.33C205.54 257.32 140.83 264.77 140.83 264.77L65.4299 246.66L65.7 247.71C85.28 274.51 108.9 305.15 135.9 337.1L255.85 316.31Z" fill="#EBDAB7"/>
<path d="M36.1299 228.48C36.1299 228.48 155.9 377.09 213.91 439.83L314.2 215.19C314.2 215.19 241.85 256.09 141.68 272.23C141.68 272.22 93.9399 263.48 36.1299 228.48Z" fill="url(#paint16_linear_1_2765)"/>
<path d="M200.95 191.79C207.47 187.63 214.94 185 222.61 184.45C222.93 183.28 223.12 182.05 223.12 180.78C223.12 173.14 216.93 166.95 209.29 166.95C201.65 166.95 195.46 173.14 195.46 180.78C195.46 185.28 197.62 189.27 200.95 191.79Z" fill="#5C1D04"/>
<path d="M205.06 189.44C208.74 187.56 212.65 186.14 216.68 185.28C217.7 183.7 218.29 181.83 218.29 179.81C218.29 174.22 213.76 169.69 208.17 169.69C202.58 169.69 198.05 174.22 198.05 179.81C198.04 184.31 200.99 188.13 205.06 189.44Z" fill="url(#paint17_linear_1_2765)"/>
<path d="M205.82 172.89C206.8 173.87 206.53 175.72 205.23 177.02C203.93 178.32 202.08 178.59 201.1 177.61C200.12 176.63 200.39 174.78 201.69 173.48C202.99 172.18 204.84 171.91 205.82 172.89Z" fill="#AB8878"/>
<path d="M59.2199 134.48C61.5999 147.59 83.7398 153.1 114.38 160.72C132.48 165.22 152.99 170.32 172.95 178L173.72 178.3L174.34 177.75C174.71 177.41 212.26 143.95 264.73 122.7L266.26 122.08L265.35 120.7C264.52 119.45 244.93 90.11 233.76 83.41C220.48 75.44 174.04 74.6001 159.12 78.9901C144.97 83.1501 129.57 95.33 128.3 100.31C127.95 101.66 128.51 102.47 128.87 102.83C131.63 105.59 165.78 113.44 176.17 115.78L176.73 115.91L193.52 104.81C194.14 104.4 194.31 103.56 193.9 102.94C193.49 102.32 192.65 102.15 192.03 102.56L176.13 111.56C155.79 106.97 135.54 102.29 132.96 100.54C133.25 97.5801 144.6 86.44 158.59 82.33C177.15 76.87 220.68 79.74 231 85.93C240.34 91.53 256.63 114.61 260.68 120.56C212.27 140.5 178.51 169.44 173.43 173.85C153.55 166.28 133.69 161.34 115.75 156.87C87.2099 149.77 65.5399 144.99 63.4699 133.6C61.9799 125.42 77.08 105.32 99.56 83.34C116.82 66.47 132.95 53.7901 144.59 47.7401C144.97 46.1501 145.42 44.49 145.91 42.79C117.66 56.4 55.5999 114.53 59.2199 134.48Z" fill="#FFE2AC"/>
<path d="M24.3299 109.17C14.4399 118.93 -1.01003 134.96 0.73997 149.91C3.48997 173.26 99.6899 215.31 175.43 215.31C180.44 215.31 185.38 215.13 190.18 214.74C248.95 210.01 304.45 166.76 325.09 137.55C328.71 132.43 332.8 125.45 331.69 121.3C329.7 113.82 325.16 106.44 318.95 99.4401C318.2 100.85 317.36 102.28 316.43 103.73C321.84 110.11 325.3 116.25 326.75 121.71C326.99 122.6 327.24 126.24 320.55 135.71C304.57 158.32 254.25 205.59 190.83 210.69C185.97 211.08 181.03 211.27 176 211.27C99.4 211.27 8.66995 168.86 6.33995 149.06C4.60995 134.39 53.8099 72.6401 104.64 75.9801C105.8 74.8801 106.95 73.7901 108.11 72.7001C86.2201 67.2001 57.8199 76.1001 24.3299 109.17Z" fill="#FFE2AC"/>
<path d="M265.28 156.88C265.3 156.9 265.33 156.92 265.35 156.95C266.23 157.85 266.02 162.76 265.63 165.08C265.11 168.23 264.35 170.24 262.63 172.41C261.14 174.29 258.18 176.37 253.66 177.95C253.29 178.08 252.83 178.04 252.54 177.78C252.47 177.72 252.41 177.63 252.4 177.54C252.32 177.03 253.36 176.56 253.71 176.39C255.99 175.25 258.41 173.27 259.59 172.05C261.43 170.13 262.96 167.57 263.59 164.89C264.11 162.69 264.28 158.84 264.23 158.15C264.19 157.56 264.51 156.19 265.28 156.88Z" fill="#E1B991"/>
<path d="M279.05 127.24C280.19 129.14 281.11 130.78 281.9 131.94C294.03 117.99 314.16 96.1 314.59 85.39C314.91 77.32 305.95 47.79 298.81 36.76C302.84 49.7 310.8 76.74 310.04 86.34C309.27 96.09 290.52 117.4 279.05 127.24Z" fill="#FFFBE8"/>
<path opacity="0.5" d="M257.7 341.74C205.98 348.81 160.25 345.63 121.16 332.2C122.78 334.15 124.41 336.1 126.04 338.05C150.44 345.64 177.25 349.45 206.34 349.45C222.15 349.45 238.63 348.32 255.76 346.08L257.7 341.74Z" fill="#D9BE84"/>
<path opacity="0.2" d="M245.52 245.23C241.54 285.08 232.53 357.35 213.91 439.83L314.2 215.19C314.2 215.19 288.08 229.95 245.52 245.23Z" fill="#D9BE84"/>
<defs>
<linearGradient id="paint0_linear_1_2765" x1="66.276" y1="90.4457" x2="77.0888" y2="108.561" gradientUnits="userSpaceOnUse">
<stop offset="0.0296" stop-color="#73371F"/>
<stop offset="0.6739" stop-color="#65270E"/>
<stop offset="1" stop-color="#5C1D04"/>
</linearGradient>
<linearGradient id="paint1_linear_1_2765" x1="317.95" y1="139.78" x2="82.822" y2="139.78" gradientUnits="userSpaceOnUse">
<stop stop-color="#EC9C2A"/>
<stop offset="0.5856" stop-color="#E99026"/>
<stop offset="1" stop-color="#D1721E"/>
</linearGradient>
<linearGradient id="paint2_linear_1_2765" x1="85.4063" y1="102.942" x2="126.996" y2="114.899" gradientUnits="userSpaceOnUse">
<stop stop-color="#9C522D"/>
<stop offset="0.4665" stop-color="#8B431E"/>
<stop offset="1" stop-color="#732C09"/>
</linearGradient>
<linearGradient id="paint3_linear_1_2765" x1="216.098" y1="80.2758" x2="322.688" y2="80.2758" gradientUnits="userSpaceOnUse">
<stop stop-color="#FFF5CC"/>
<stop offset="0.2573" stop-color="#FFF1BB"/>
<stop offset="0.4714" stop-color="#FFEDAA"/>
<stop offset="1" stop-color="#F8DF8A"/>
</linearGradient>
<linearGradient id="paint4_linear_1_2765" x1="297.641" y1="132.912" x2="234.228" y2="36.4445" gradientUnits="userSpaceOnUse">
<stop stop-color="#FFF5CC"/>
<stop offset="0.5325" stop-color="#FFF1BB"/>
<stop offset="1" stop-color="#FFEDA9"/>
</linearGradient>
<linearGradient id="paint5_linear_1_2765" x1="190.008" y1="-19.902" x2="205.047" y2="43.4445" gradientUnits="userSpaceOnUse">
<stop stop-color="#FFF5CC"/>
<stop offset="0.1933" stop-color="#FFF1BB"/>
<stop offset="0.3543" stop-color="#FFEDAA"/>
<stop offset="1" stop-color="#F8DF8A"/>
</linearGradient>
<linearGradient id="paint6_linear_1_2765" x1="241.361" y1="124.515" x2="142.749" y2="124.515" gradientUnits="userSpaceOnUse">
<stop stop-color="#EC9C2A"/>
<stop offset="0.5856" stop-color="#E99026"/>
<stop offset="1" stop-color="#D1721E"/>
</linearGradient>
<linearGradient id="paint7_linear_1_2765" x1="168.459" y1="93.0968" x2="179.272" y2="111.212" gradientUnits="userSpaceOnUse">
<stop offset="0.0296" stop-color="#73371F"/>
<stop offset="0.6739" stop-color="#65270E"/>
<stop offset="1" stop-color="#5C1D04"/>
</linearGradient>
<linearGradient id="paint8_linear_1_2765" x1="128.459" y1="144.467" x2="203.182" y2="144.467" gradientUnits="userSpaceOnUse">
<stop stop-color="#EC9C2A"/>
<stop offset="0.5856" stop-color="#E99026"/>
<stop offset="1" stop-color="#D1721E"/>
</linearGradient>
<linearGradient id="paint9_linear_1_2765" x1="136.169" y1="64.416" x2="146.981" y2="82.5307" gradientUnits="userSpaceOnUse">
<stop offset="0.0296" stop-color="#73371F"/>
<stop offset="0.6739" stop-color="#65270E"/>
<stop offset="1" stop-color="#5C1D04"/>
</linearGradient>
<linearGradient id="paint10_linear_1_2765" x1="143.154" y1="148.526" x2="153.967" y2="166.641" gradientUnits="userSpaceOnUse">
<stop offset="0.0296" stop-color="#73371F"/>
<stop offset="0.6739" stop-color="#65270E"/>
<stop offset="1" stop-color="#5C1D04"/>
</linearGradient>
<linearGradient id="paint11_linear_1_2765" x1="59.2217" y1="192.547" x2="273.611" y2="192.547" gradientUnits="userSpaceOnUse">
<stop stop-color="#EC9C2A"/>
<stop offset="0.5856" stop-color="#E99026"/>
<stop offset="1" stop-color="#D1721E"/>
</linearGradient>
<linearGradient id="paint12_linear_1_2765" x1="91.236" y1="202.276" x2="235.938" y2="200.589" gradientUnits="userSpaceOnUse">
<stop stop-color="#9C522D"/>
<stop offset="0.4665" stop-color="#8B431E"/>
<stop offset="1" stop-color="#732C09"/>
</linearGradient>
<linearGradient id="paint13_linear_1_2765" x1="40.3275" y1="183.54" x2="101.168" y2="183.54" gradientUnits="userSpaceOnUse">
<stop stop-color="#9C522D"/>
<stop offset="0.4665" stop-color="#8B431E"/>
<stop offset="1" stop-color="#732C09"/>
</linearGradient>
<linearGradient id="paint14_linear_1_2765" x1="99.0517" y1="179.374" x2="109.864" y2="197.489" gradientUnits="userSpaceOnUse">
<stop offset="0.0296" stop-color="#73371F"/>
<stop offset="0.6739" stop-color="#65270E"/>
<stop offset="1" stop-color="#5C1D04"/>
</linearGradient>
<linearGradient id="paint15_linear_1_2765" x1="45.0867" y1="140.598" x2="215.986" y2="240.439" gradientUnits="userSpaceOnUse">
<stop stop-color="#EC9C2A"/>
<stop offset="0.5856" stop-color="#E99026"/>
<stop offset="1" stop-color="#D1721E"/>
</linearGradient>
<linearGradient id="paint16_linear_1_2765" x1="-46.2396" y1="169.719" x2="273.333" y2="332.227" gradientUnits="userSpaceOnUse">
<stop stop-color="white"/>
<stop offset="1" stop-color="#F5E6C5"/>
</linearGradient>
<linearGradient id="paint17_linear_1_2765" x1="202.44" y1="170.216" x2="213.253" y2="188.33" gradientUnits="userSpaceOnUse">
<stop offset="0.0296" stop-color="#73371F"/>
<stop offset="0.6739" stop-color="#65270E"/>
<stop offset="1" stop-color="#5C1D04"/>
</linearGradient>
</defs>
</svg>
