<svg width="385" height="328" viewBox="0 0 385 328" fill="none" xmlns="http://www.w3.org/2000/svg">
<path d="M102.08 91.7101C56.5002 90.7501 6.43013 114.09 10.3001 149.22C15.1601 193.42 48.1501 209.71 100.19 209.71C154.12 209.71 188.96 191.05 191.97 151.21C194.59 116.55 149.4 92.7101 102.08 91.7101Z" fill="#FBA40A"/>
<path d="M100.78 191.62C155.998 191.62 200.76 161.878 200.76 125.19C200.76 88.5017 155.998 58.76 100.78 58.76C45.5627 58.76 0.800049 88.5017 0.800049 125.19C0.800049 161.878 45.5627 191.62 100.78 191.62Z" fill="url(#paint0_linear_1_2717)"/>
<path d="M100.78 169.95C152.767 169.95 194.91 141.945 194.91 107.4C194.91 72.8547 152.767 44.8501 100.78 44.8501C48.7936 44.8501 6.65015 72.8547 6.65015 107.4C6.65015 141.945 48.7936 169.95 100.78 169.95Z" fill="#F2E3CE"/>
<path d="M100.78 157.7C155.998 157.7 200.76 127.958 200.76 91.2701C200.76 54.5818 155.998 24.8401 100.78 24.8401C45.5627 24.8401 0.800049 54.5818 0.800049 91.2701C0.800049 127.958 45.5627 157.7 100.78 157.7Z" fill="url(#paint1_linear_1_2717)"/>
<path d="M194.91 74.51C192.64 108.99 152.76 137.06 100.78 137.06C48.8002 137.06 6.65015 109.06 6.65015 74.51C6.65015 48.26 34.9002 0.660036 100.78 0.660036C169.86 0.650036 196.36 52.42 194.91 74.51Z" fill="url(#paint2_linear_1_2717)"/>
<path opacity="0.15" d="M180.53 36.5801C180.55 36.6901 180.56 36.8001 180.58 36.9201C186.93 84.4101 135.56 128.02 91.9801 125.51C38.3701 122.42 15.0701 86.8801 7.81012 64.5601C7.03012 68.0901 6.64014 71.4401 6.64014 74.5101C6.64014 109.05 48.7901 137.06 100.77 137.06C152.76 137.06 192.64 108.99 194.9 74.5101C195.52 65.1301 191.1 50.4201 180.53 36.5801Z" fill="#E13720"/>
<path opacity="0.5" d="M40.2001 42.54C45.9101 34.13 53.9901 27.78 63.5901 24.38C68.5201 22.63 66.8101 16.1 61.6301 17.18C49.5201 19.72 40.23 27.9 33.23 38.21C30.25 42.59 37.2401 46.9 40.2001 42.54Z" fill="white"/>
<path opacity="0.5" d="M25.7301 60.0801C28.0401 59.3001 29.8301 56.6101 29.1301 54.1101C28.8601 53.1601 28.1301 52.1301 27.2401 51.6601C26.2801 51.1601 25.1301 50.9101 24.0801 51.2601C20.6201 52.3901 18.8101 57.8601 22.6401 59.8501C23.6601 60.3901 24.7401 60.4101 25.7301 60.0801Z" fill="white"/>
<path opacity="0.45" d="M149.69 140.98C147.31 140.98 147.3 144.68 149.69 144.68C152.07 144.68 152.07 140.98 149.69 140.98Z" fill="#D1721E"/>
<path opacity="0.45" d="M169.2 124.13C167.8 124.19 166.61 125.27 166.61 126.72V127.02C166.61 128.38 167.8 129.67 169.2 129.61C170.6 129.55 171.79 128.47 171.79 127.02V126.72C171.79 125.36 170.6 124.06 169.2 124.13Z" fill="#D1721E"/>
<path opacity="0.45" d="M168.48 162.68C165.15 162.68 165.14 167.86 168.48 167.86C171.81 167.86 171.82 162.68 168.48 162.68Z" fill="#D1721E"/>
<path opacity="0.45" d="M146.13 166.7C142.8 166.7 142.79 171.88 146.13 171.88C149.47 171.89 149.47 166.7 146.13 166.7Z" fill="#D1721E"/>
<path opacity="0.45" d="M155.93 171.65H155.64C154.87 171.65 154.12 172.33 154.16 173.13C154.2 173.93 154.81 174.61 155.64 174.61H155.93C156.7 174.61 157.45 173.93 157.41 173.13C157.38 172.33 156.76 171.65 155.93 171.65Z" fill="#D1721E"/>
<path opacity="0.45" d="M172.39 153.62C170.48 153.62 170.48 156.58 172.39 156.58C174.3 156.58 174.3 153.62 172.39 153.62Z" fill="#D1721E"/>
<path opacity="0.45" d="M125 172.32C123.09 172.32 123.09 175.28 125 175.28C126.91 175.28 126.91 172.32 125 172.32Z" fill="#D1721E"/>
<path opacity="0.45" d="M179.11 122.39C177.2 122.39 177.2 125.35 179.11 125.35C181.02 125.36 181.02 122.39 179.11 122.39Z" fill="#D1721E"/>
<path opacity="0.45" d="M190.44 108.44C190.34 108.34 190.24 108.24 190.15 108.14C189.6 107.59 188.6 107.55 188.06 108.14C187.52 108.73 187.47 109.65 188.06 110.23C188.16 110.33 188.26 110.43 188.35 110.53C188.9 111.08 189.9 111.12 190.44 110.53C190.98 109.94 191.02 109.03 190.44 108.44Z" fill="#D1721E"/>
<path opacity="0.45" d="M125.9 139.71C123.99 139.71 123.99 142.67 125.9 142.67C127.81 142.68 127.81 139.71 125.9 139.71Z" fill="#D1721E"/>
<path opacity="0.45" d="M141.01 175.98C139.1 175.98 139.1 178.94 141.01 178.94C142.92 178.94 142.92 175.98 141.01 175.98Z" fill="#D1721E"/>
<path opacity="0.45" d="M139.11 139.33C138.22 138.52 136.85 138.45 135.97 139.33C135.87 139.43 135.77 139.53 135.68 139.63C134.86 140.45 134.8 141.96 135.68 142.77C136.57 143.58 137.94 143.65 138.82 142.77C138.92 142.67 139.02 142.57 139.11 142.47C139.93 141.65 139.99 140.14 139.11 139.33Z" fill="#D1721E"/>
<path opacity="0.45" d="M133.77 146.09C131.39 146.09 131.38 149.79 133.77 149.79C136.15 149.79 136.15 146.09 133.77 146.09Z" fill="#D1721E"/>
<path opacity="0.45" d="M185.98 149.48C183.6 149.48 183.59 153.18 185.98 153.18C188.36 153.18 188.37 149.48 185.98 149.48Z" fill="#D1721E"/>
<path d="M286.22 209.73C240.64 208.77 190.57 232.11 194.44 267.24C199.3 311.44 232.29 327.73 284.33 327.73C338.26 327.73 373.1 309.07 376.11 269.23C378.73 234.57 333.53 210.72 286.22 209.73Z" fill="#E02F32"/>
<path d="M284.91 309.63C340.127 309.63 384.89 279.888 384.89 243.2C384.89 206.512 340.127 176.77 284.91 176.77C229.693 176.77 184.93 206.512 184.93 243.2C184.93 279.888 229.693 309.63 284.91 309.63Z" fill="url(#paint3_linear_1_2717)"/>
<path d="M284.91 287.97C336.897 287.97 379.04 259.965 379.04 225.42C379.04 190.875 336.897 162.87 284.91 162.87C232.923 162.87 190.78 190.875 190.78 225.42C190.78 259.965 232.923 287.97 284.91 287.97Z" fill="#F2E3CE"/>
<path d="M284.91 275.72C340.127 275.72 384.89 245.978 384.89 209.29C384.89 172.602 340.127 142.86 284.91 142.86C229.693 142.86 184.93 172.602 184.93 209.29C184.93 245.978 229.693 275.72 284.91 275.72Z" fill="url(#paint4_linear_1_2717)"/>
<path d="M379.04 192.52C376.77 227 336.89 255.07 284.91 255.07C232.93 255.07 190.78 227.07 190.78 192.52C190.78 166.27 219.03 118.67 284.91 118.67C353.99 118.67 380.49 170.43 379.04 192.52Z" fill="url(#paint5_linear_1_2717)"/>
<path opacity="0.3" d="M364.67 154.59C364.69 154.7 364.7 154.81 364.72 154.93C371.07 202.42 319.7 246.03 276.12 243.52C222.51 240.43 199.21 204.89 191.95 182.57C191.17 186.1 190.78 189.45 190.78 192.52C190.78 227.06 232.93 255.07 284.91 255.07C336.9 255.07 376.78 227 379.04 192.52C379.66 183.15 375.24 168.43 364.67 154.59Z" fill="#E13720"/>
<path opacity="0.4" d="M219.31 164.32C224.28 155.45 231.78 148.44 241.06 144.23C245.82 142.07 243.56 135.7 238.49 137.23C226.65 140.79 218.08 149.75 211.99 160.61C209.4 165.22 216.73 168.91 219.31 164.32Z" fill="white"/>
<path opacity="0.4" d="M206.65 179.96C208.96 179.18 210.75 176.49 210.05 173.99C209.78 173.04 209.05 172.01 208.16 171.54C207.2 171.04 206.05 170.79 205 171.14C201.54 172.27 199.73 177.74 203.56 179.73C204.58 180.27 205.66 180.29 206.65 179.96Z" fill="white"/>
<path opacity="0.7" d="M341.71 253.9C339.33 253.9 339.32 257.6 341.71 257.6C344.09 257.6 344.1 253.9 341.71 253.9Z" fill="#E02F32"/>
<path opacity="0.7" d="M348.5 245.2C347.1 245.26 345.91 246.34 345.91 247.79V248.09C345.91 249.45 347.1 250.74 348.5 250.68C349.9 250.62 351.09 249.54 351.09 248.09V247.79C351.09 246.43 349.9 245.13 348.5 245.2Z" fill="#E02F32"/>
<path opacity="0.7" d="M354.39 277.64C351.06 277.64 351.05 282.82 354.39 282.82C357.73 282.82 357.73 277.64 354.39 277.64Z" fill="#E02F32"/>
<path opacity="0.7" d="M334.34 284.72C331.01 284.72 331 289.9 334.34 289.9C337.67 289.9 337.68 284.72 334.34 284.72Z" fill="#E02F32"/>
<path opacity="0.7" d="M340.83 289.66H340.54C339.77 289.66 339.02 290.34 339.06 291.14C339.1 291.94 339.71 292.62 340.54 292.62H340.83C341.6 292.62 342.35 291.94 342.31 291.14C342.27 290.34 341.66 289.66 340.83 289.66Z" fill="#E02F32"/>
<path opacity="0.7" d="M358.82 271.38C356.91 271.38 356.91 274.34 358.82 274.34C360.72 274.34 360.73 271.38 358.82 271.38Z" fill="#E02F32"/>
<path opacity="0.7" d="M363.24 240.41C361.33 240.41 361.33 243.37 363.24 243.37C365.15 243.37 365.15 240.41 363.24 240.41Z" fill="#E02F32"/>
<path opacity="0.7" d="M374.32 223.15C374.22 223.05 374.12 222.95 374.03 222.85C373.48 222.3 372.48 222.26 371.94 222.85C371.4 223.44 371.35 224.36 371.94 224.94C372.04 225.04 372.14 225.14 372.23 225.24C372.78 225.79 373.78 225.83 374.32 225.24C374.86 224.65 374.9 223.73 374.32 223.15Z" fill="#E02F32"/>
<path opacity="0.7" d="M314.87 257.22C312.96 257.22 312.96 260.18 314.87 260.18C316.78 260.18 316.78 257.22 314.87 257.22Z" fill="#E02F32"/>
<path opacity="0.7" d="M326.67 295.27C324.76 295.27 324.76 298.23 326.67 298.23C328.58 298.23 328.58 295.27 326.67 295.27Z" fill="#E02F32"/>
<path opacity="0.7" d="M321.46 262.44C320.57 261.63 319.2 261.56 318.32 262.44C318.22 262.54 318.12 262.64 318.03 262.74C317.21 263.56 317.15 265.07 318.03 265.88C318.92 266.69 320.29 266.76 321.17 265.88C321.27 265.78 321.37 265.68 321.46 265.59C322.28 264.76 322.34 263.25 321.46 262.44Z" fill="#E02F32"/>
<path opacity="0.7" d="M307.2 263.34C304.82 263.34 304.81 267.04 307.2 267.04C309.59 267.04 309.59 263.34 307.2 263.34Z" fill="#E02F32"/>
<path opacity="0.7" d="M311.04 293.72C308.66 293.72 308.65 297.42 311.04 297.42C313.42 297.42 313.42 293.72 311.04 293.72Z" fill="#E02F32"/>
<defs>
<linearGradient id="paint0_linear_1_2717" x1="60.4656" y1="125.186" x2="169.308" y2="125.186" gradientUnits="userSpaceOnUse">
<stop stop-color="#FEC94F"/>
<stop offset="1" stop-color="#FEBB21"/>
</linearGradient>
<linearGradient id="paint1_linear_1_2717" x1="60.4656" y1="91.2723" x2="169.308" y2="91.2723" gradientUnits="userSpaceOnUse">
<stop stop-color="#FEC94F"/>
<stop offset="1" stop-color="#FEBB21"/>
</linearGradient>
<linearGradient id="paint2_linear_1_2717" x1="67.7806" y1="1.61964" x2="119.194" y2="113.627" gradientUnits="userSpaceOnUse">
<stop stop-color="#FFC638"/>
<stop offset="0.9995" stop-color="#FFBA0B"/>
</linearGradient>
<linearGradient id="paint3_linear_1_2717" x1="184.928" y1="243.2" x2="384.887" y2="243.2" gradientUnits="userSpaceOnUse">
<stop stop-color="#FF8C92"/>
<stop offset="1" stop-color="#F9636A"/>
</linearGradient>
<linearGradient id="paint4_linear_1_2717" x1="184.928" y1="209.287" x2="384.887" y2="209.287" gradientUnits="userSpaceOnUse">
<stop stop-color="#FF8C92"/>
<stop offset="1" stop-color="#F9636A"/>
</linearGradient>
<linearGradient id="paint5_linear_1_2717" x1="221.705" y1="118.336" x2="340.376" y2="252.982" gradientUnits="userSpaceOnUse">
<stop offset="0.1345" stop-color="#FF7178"/>
<stop offset="0.9995" stop-color="#E6383F"/>
</linearGradient>
</defs>
</svg>
