<svg width="387" height="346" viewBox="0 0 387 346" fill="none" xmlns="http://www.w3.org/2000/svg">
<path d="M39.8501 244.67C44.7201 201.03 131.8 172.7 197.83 175.21C258.83 177.53 340.9 207.66 344.11 250.56C347.44 294.98 297.63 346.31 190.81 345.92C87.1001 345.54 34.9001 288.98 39.8501 244.67Z" fill="#CC6B28"/>
<path d="M55.1599 252C55.1599 252 63.0001 294.37 81.1201 301.21C102.31 309.22 122.76 276.71 133.4 277.66C138.55 278.12 142.8 331.1 178.61 333.7C202.62 335.45 213.01 311.58 225.43 311.58C234.79 311.58 240.65 321.53 252.94 320.94C261.15 320.55 273.43 309.23 274.01 289.92C274.49 274.13 105.22 227.59 55.1599 252Z" fill="#FFE9BD"/>
<path d="M210.87 282.43C210.87 282.43 245.25 311.17 267.28 311.17C290.11 311.17 328.63 283.17 335.06 255.08C340.22 232.58 237.34 197.79 237.34 197.79L210.87 282.43Z" fill="#FF925F"/>
<path opacity="0.5" d="M245.45 261.28L238.34 268.86C238.34 268.86 245.07 290.53 251.19 307.5C253.6 308.45 256 309.26 258.33 309.88C253.93 290.29 245.45 261.28 245.45 261.28Z" fill="#FDE0C3"/>
<path opacity="0.5" d="M283.81 307.53C280.19 288.65 274.84 266.03 274.84 266.03L265.83 271.24C265.83 271.24 271.63 292.29 277.16 309.73C279.33 309.15 281.55 308.42 283.81 307.53Z" fill="#FDE0C3"/>
<path d="M162.15 255.77C159.74 237.83 157.33 219.9 154.92 201.96C118.77 217.97 71.46 244.1 71.06 255.76C70.48 272.57 110.05 312 140.82 307.26C149.3 305.96 162.14 300.51 176.42 292.89C170.55 281.17 165.8 268.79 162.15 255.77Z" fill="#FF925F"/>
<path opacity="0.5" d="M87.02 283.05C89.16 285.2 91.4699 287.32 93.8999 289.36C103.78 281.69 115.66 272.03 121.92 267.33C132.4 259.48 133.72 259 131.69 257.22C129.65 255.44 127.93 256.45 116.38 264.01C109.69 268.38 93.13 279.51 87.02 283.05Z" fill="#FDE0C3"/>
<path opacity="0.5" d="M117.96 304C123.02 298.69 133.91 288.7 139.26 284.3C149.35 275.99 152.9 274.69 150.82 272.87C147.48 269.95 135 280.72 108.78 299.66C111.78 301.33 114.86 302.8 117.96 304Z" fill="#FDE0C3"/>
<path d="M179.58 209.75C157.91 207.04 129.82 228.45 125.49 252.11C121.41 274.38 132.2 312.44 158.68 317.98C185.16 323.52 221.52 295.39 217.78 247.24C215.87 222.74 200.54 212.37 179.58 209.75Z" fill="#446C22"/>
<path d="M58.0401 182.57C28.4201 187.17 -5.97994 220.26 1.53006 245.66C9.04006 271.05 56.0799 273.18 85.6399 262.75C104.65 256.04 119.7 224.71 115.62 209.46C111.33 193.47 79.4001 179.25 58.0401 182.57Z" fill="url(#paint0_linear_1_1637)"/>
<path d="M177.38 158.02C150.32 129.37 97.4499 135.09 69.2899 164.06C46.5899 187.41 38.05 227.82 54.84 250.76C80.54 285.88 164.02 277.88 187.3 232.3C198.72 209.94 196.02 177.77 177.38 158.02Z" fill="url(#paint1_linear_1_1637)"/>
<path opacity="0.4" d="M140.49 248.23C151.99 243.11 163.54 238.11 175 232.89L176.66 169.64L66.8401 178.12C66.8401 178.12 72.7899 228.72 74.6499 232.49L129.84 252.43C133.39 251.02 136.94 249.62 140.49 248.23Z" fill="#A1BB3A"/>
<path d="M224 190.25C222.73 192.29 220.15 196.48 218.46 202.53C218.46 202.53 213.13 221.6 223.69 241.76C240.75 274.29 335.14 287.86 358.56 246.58C376.28 215.33 353.12 153.03 308.79 143.02C265.55 133.26 230.63 179.64 224 190.25Z" fill="url(#paint2_linear_1_1637)"/>
<path d="M226.37 210.3C215.74 227.18 226.19 255.34 242.61 272.87C266.35 298.23 311.42 303.15 327.88 286C342.71 270.55 341.27 227.91 285.93 206.82C263.01 198.09 236.66 193.97 226.37 210.3Z" fill="url(#paint3_linear_1_1637)"/>
<path d="M247.9 179.48C250.41 162.27 295.91 150.6 318.69 149.36C357.58 147.25 387.33 177.71 386.66 195.41C385.92 214.96 360.17 227.97 316.38 227.52C278 227.14 245.29 197.42 247.9 179.48Z" fill="#446C22"/>
<path d="M279.03 166.35C253.78 167.07 224.42 184.75 224.51 205.08C224.6 226.26 252.86 243.46 279.84 243.46C307.52 243.46 336.22 233.4 338.93 210.21C339.53 205.03 340.26 192.11 337 187.41C326.95 172.9 299.91 165.75 279.03 166.35ZM278.24 226.83C260.51 226.08 236.69 216.82 235.65 203.4C234.58 189.6 257.83 174.47 278.91 173.92C302.05 173.32 330.02 186.95 328.77 200.98C327.57 214.6 298.69 227.69 278.24 226.83Z" fill="#AE5681"/>
<path d="M279.03 157.57C253.78 158.29 224.42 175.97 224.51 196.3C224.6 217.48 252.86 234.68 279.84 234.68C307.52 234.68 338.15 222.17 338.15 197.32C338.14 176.04 306.68 156.77 279.03 157.57ZM279.55 223.83C258.14 223.83 235.72 210.74 235.65 194.61C235.58 179.14 258.88 165.68 278.91 165.13C300.85 164.53 325.81 179.19 325.81 195.39C325.82 214.3 301.51 223.83 279.55 223.83Z" fill="#E5CDE0"/>
<path d="M111.7 187.3C88.47 187 59.7201 185.76 61.5601 224.02C62.4901 243.48 87.63 258.21 112.44 258.21C137.9 258.21 163.78 249.46 166.06 226.72C169.49 192.72 142.43 187.69 111.7 187.3ZM111.2 243.92C94.49 243.25 71.54 231.33 71.71 221.87C71.87 212.61 95.06 200.94 111.2 200.84C129.88 200.73 154.78 215.86 154.28 225.46C153.79 234.79 128.3 244.6 111.2 243.92Z" fill="#AE5681"/>
<path d="M111.7 178.84C88.4799 179.51 61.48 195.77 61.56 214.46C61.64 233.94 87.6299 249.76 112.44 249.76C137.9 249.76 166.06 238.25 166.06 215.4C166.06 195.83 137.13 178.11 111.7 178.84ZM111.75 240.2C92.2399 239.57 72.4199 228.9 71.9499 213.43C71.4699 197.8 90.9899 183.77 111.67 183.22C134.61 182.61 159.27 198.39 158.52 214.22C157.8 229.67 133.11 240.9 111.75 240.2Z" fill="#E5CDE0"/>
<path d="M214.07 216.45C190.84 216.15 162.09 214.91 163.93 253.17C164.86 272.63 190 287.36 214.81 287.36C240.27 287.36 266.15 278.61 268.43 255.87C271.85 221.87 244.8 216.84 214.07 216.45ZM213.88 270.18C197.17 269.51 175.14 260.32 175.31 250.86C175.47 241.6 196.97 233.08 213.11 233.08C240.96 233.08 256.34 243.56 255.84 253.15C255.34 262.48 230.97 270.86 213.88 270.18Z" fill="#AE5681"/>
<path d="M213.43 208.55C190.22 209.63 163.52 226.15 163.93 244.56C164.36 263.76 190.66 277.27 215.44 278.41C242.15 279.64 268.85 266.09 268.44 243.57C268.09 224.29 238.84 207.36 213.43 208.55ZM214.99 269.37C196.86 269.09 174.03 258.17 173.32 243.35C172.6 228.38 194.71 214.51 213.9 213.64C235.18 212.67 259.43 227.36 259.01 242.55C258.61 257.36 234.83 269.67 214.99 269.37Z" fill="#E5CDE0"/>
<path d="M15.5401 185.9C14.9501 182.76 13.8101 168.49 14.9801 165.55C23.1601 144.99 57.5501 133.61 83.3001 132.43C117.41 130.87 159.3 150.94 158.73 175.69C158.09 203.85 133.44 224.14 84.6002 224.53C54.5302 224.77 20.0201 209.87 15.5401 185.9Z" fill="url(#paint4_linear_1_1637)"/>
<path d="M13.69 170.31C15.4 144.85 53.6601 128.08 83.1201 127.73C117.27 127.32 157.03 148.77 157.04 173.52C157.05 197.09 133.19 216.69 81.43 216.94C51.35 217.08 11.99 195.54 13.69 170.31Z" fill="#AFCE7C"/>
<path d="M21.69 170.62C22.16 149.89 55.8702 133.09 83.3602 132.8C114.14 132.47 149.49 152.71 149.02 173.47C148.55 194.48 118.48 210.22 82.92 210.22C51.32 210.21 21.23 191.09 21.69 170.62Z" fill="#DEEDB9"/>
<path d="M134.97 220.14C134.83 214.38 134.91 204.33 138.19 199.34C149.45 182.21 179.33 174.9 202.09 173.3C229.12 171.4 264.46 178.5 276.79 197C280 201.82 279.13 214.45 279.13 219.56C279.13 241.24 254.52 263.92 205.51 263.92C175.43 263.92 135.55 244.76 134.97 220.14Z" fill="url(#paint5_linear_1_1637)"/>
<path d="M136.28 211.71C136.5 186.19 173.72 167.22 203.11 165.15C237.17 162.75 278.12 181.84 279.58 206.55C280.97 230.08 254.62 255.78 206.54 255.78C172.91 255.78 136.06 237 136.28 211.71Z" fill="#AFCE7C"/>
<path d="M144.8 210.47C144.99 188.58 177.79 172.29 203.69 170.52C233.71 168.46 269.79 184.84 271.08 206.04C272.3 226.23 249.09 248.28 206.71 248.28C177.08 248.28 144.61 232.17 144.8 210.47Z" fill="#DEEDB9"/>
<path d="M225.53 152.95C227.25 126.82 265.52 109.63 294.98 109.29C322.14 108.97 352.23 121.7 363.67 140.17C366.61 144.92 370.14 153.7 369.76 158.89C367.93 183.75 341.16 202.34 293.08 202.34C262.99 202.33 223.83 178.84 225.53 152.95Z" fill="url(#paint6_linear_1_1637)"/>
<path d="M226.08 146.34C227.8 120.79 266.21 103.98 295.78 103.64C330.05 103.25 369.95 124.79 369.95 149.63C369.95 173.28 342.12 194.64 293.87 194.64C263.68 194.64 224.37 171.67 226.08 146.34Z" fill="#AFCE7C"/>
<path d="M233.05 145.31C234.61 123.02 269.29 108.35 296 108.05C326.95 107.71 362.98 126.5 362.98 148.17C362.98 168.81 337.85 187.44 294.27 187.44C267 187.44 231.51 167.4 233.05 145.31Z" fill="#DEEDB9"/>
<path d="M197.93 0.670044C88.7799 0.670044 21.5299 72.96 26.4899 134.15C31.8299 200 125.5 232.96 196.15 232.63C258.06 232.34 345.05 206.53 355.73 144.24C366.55 81.1 299.37 0.670044 197.93 0.670044ZM195.46 123.14C180.22 123.46 162.8 120.04 148.13 113.79C160.7 107.05 179.55 101.07 197.96 100.72C214.96 100.4 232.48 104.86 245.11 110.47C230.2 118.12 211.67 122.8 195.46 123.14Z" fill="url(#paint7_linear_1_1637)"/>
<path opacity="0.2" d="M331.24 62.66C303.98 27.67 256.71 0.660034 197.93 0.660034C110.39 0.660034 49.8101 47.16 31.8101 97.13C46.7701 146.11 107.49 182.78 180.13 182.78C264 182.78 332 133.91 332 73.63C332 69.93 331.74 66.27 331.24 62.66ZM195.18 131.97C141.07 131.97 115.26 104.67 115.26 100.2C115.26 90.27 141.92 54.29 194.68 54.29C253.37 54.29 275.1 88.28 275.1 93.25C275.1 101.19 246.31 131.97 195.18 131.97Z" fill="#FFDCA6"/>
<path opacity="0.4" d="M124.77 98.7501C130.62 104.74 138.83 109.83 148.13 113.79C160.7 107.05 179.55 101.07 197.96 100.72C214.96 100.4 232.48 104.86 245.11 110.47C244.21 110.93 243.3 111.38 242.38 111.82C252.81 106.86 261.73 100.49 267.25 93.1301C234.35 61.2701 159.25 57.5301 124.77 98.7501Z" fill="#CC6B28"/>
<path opacity="0.3" d="M196.15 94.9901C166.72 95.7001 145.77 104.85 137.9 108.69C141.1 110.55 144.53 112.25 148.13 113.79C160.7 107.05 179.55 101.07 197.96 100.72C214.96 100.4 232.47 104.85 245.1 110.46C248.68 108.62 252.06 106.62 255.14 104.45C243.13 101.32 219.67 94.4201 196.15 94.9901Z" fill="#CC6B28"/>
<path d="M197.46 100.24C179.05 100.59 161.35 106.14 148.13 113.79C162.81 120.04 181.03 124.17 196.28 123.84C212.49 123.5 229.08 118.88 245.11 110.46C232.86 104.26 214.46 99.92 197.46 100.24Z" fill="#37571B"/>
<path opacity="0.3" d="M47.6498 100.53C41.5098 62.9301 120.89 20.1201 142.44 25.9101C147.31 27.2201 146.12 35.9001 143.49 44.3101C135.77 69.0001 103.11 91.0501 86.1799 93.2001C103 106.34 120.49 131.26 114.87 137.7C106.17 147.7 52.1298 127.95 47.6498 100.53Z" fill="white"/>
<path opacity="0.2" d="M180.53 30.13C180.92 20.61 210.76 9.35 236.69 15.89C259.6 21.68 279.58 41.4 276.24 49.9C271.89 60.96 228.39 52.15 226.04 51.66C224.15 51.27 180.05 41.85 180.53 30.13Z" fill="white"/>
<path opacity="0.3" d="M135.79 149.54C137.74 141.83 163.24 140.91 174.92 141.92C190.14 143.23 211.76 149.82 212.01 158.18C212.24 165.82 192.93 175.06 175.29 174.2C154.03 173.16 133.8 157.39 135.79 149.54Z" fill="white"/>
<path opacity="0.8" d="M84.1299 54.52C79.7399 54.52 79.7399 61.33 84.1299 61.33C88.5299 61.33 88.5299 54.52 84.1299 54.52Z" fill="#ECDABD"/>
<path opacity="0.8" d="M89.1799 72.57C89.1699 72.57 89.1699 72.56 89.1699 72.56C88.6599 71.69 87.9701 71 87.1101 70.49C86.2101 69.97 85.2399 69.71 84.1999 69.71H84.1899C83.1499 69.71 82.18 69.98 81.29 70.49C80.9 70.79 80.5098 71.09 80.1298 71.39C79.4198 72.11 78.9199 72.96 78.6499 73.93C78.4499 74.43 78.4599 75.01 78.4299 75.56C78.3399 77.54 79.58 79.5 81.25 80.47C82.14 80.98 83.0901 81.24 84.1201 81.25H84.1298C84.1498 81.25 84.1799 81.25 84.1999 81.25C86.2299 81.25 88.1499 80.15 89.1799 78.39C90.1599 76.71 90.3199 74.23 89.1799 72.57Z" fill="#ECDABD"/>
<path opacity="0.8" d="M100.68 63.03C95.9899 63.03 95.9899 70.31 100.68 70.31C105.37 70.31 105.37 63.03 100.68 63.03Z" fill="#ECDABD"/>
<path opacity="0.5" d="M129.91 135.73C125.07 135.73 125.07 143.23 129.91 143.23C134.75 143.23 134.75 135.73 129.91 135.73Z" fill="#ECDABD"/>
<path opacity="0.5" d="M120.8 150.2C120.14 149.08 119.68 148.83 118.66 148.07C117.46 147.17 115.49 147.09 114.11 147.48C112.63 147.89 111.36 148.87 110.58 150.19C109.78 151.55 109.57 153.21 109.98 154.74C110.43 156.37 111.77 158.06 113.44 158.68C115.59 159.65 118.13 159.04 119.84 157.46C120.22 157.11 120.54 156.7 120.8 156.24C121.47 155.1 121.46 154.52 121.61 153.22C121.71 152.33 121.23 150.93 120.8 150.2Z" fill="#ECDABD"/>
<path opacity="0.5" d="M238.4 137.23C232.92 137.23 232.92 145.73 238.4 145.73C243.88 145.73 243.88 137.23 238.4 137.23Z" fill="#ECDABD"/>
<path opacity="0.5" d="M234.2 152.82C224.76 152.82 224.76 167.46 234.2 167.46C243.64 167.46 243.64 152.82 234.2 152.82Z" fill="#ECDABD"/>
<path opacity="0.5" d="M219.58 138.61C214.1 138.61 214.1 147.11 219.58 147.11C225.06 147.11 225.06 138.61 219.58 138.61Z" fill="#ECDABD"/>
<path d="M210.75 36.21C213.64 35.12 209.15 16.15 202.1 21.72C195.05 27.3 207.87 37.27 210.75 36.21Z" fill="#4F3418"/>
<path d="M246.59 41.72C247.66 44.46 265.68 39.97 260.29 33.31C254.9 26.65 245.55 38.98 246.59 41.72Z" fill="#4F3418"/>
<path d="M67.0099 84.34C68.2099 87.41 88.4 82.38 82.36 74.92C76.33 67.46 65.8499 81.27 67.0099 84.34Z" fill="#4F3418"/>
<path d="M201.63 162.48C203.52 165.52 220.36 158.04 214.09 150.85C207.23 142.98 199.77 159.46 201.63 162.48Z" fill="#4F3418"/>
<path d="M266.88 173.51C269.71 173.34 270.13 157.68 262.84 159.42C254.86 161.33 264.08 173.67 266.88 173.51Z" fill="#4F3418"/>
<path d="M281.72 132.41C279.96 135.53 294.61 146.72 297.9 137.76C301.51 127.96 283.47 129.32 281.72 132.41Z" fill="#4F3418"/>
<path d="M312.44 75.64C309.56 75.98 310.08 92.06 317.43 89.84C325.48 87.41 315.3 75.31 312.44 75.64Z" fill="#4F3418"/>
<path d="M100.11 132.61C102.76 130.67 93.3101 115.11 87.2901 121.38C80.7101 128.25 97.4802 134.52 100.11 132.61Z" fill="#4F3418"/>
<path d="M110.25 86.08C112.99 86.79 118.23 71.97 110.75 71.38C102.56 70.73 107.54 85.36 110.25 86.08Z" fill="#4F3418"/>
<path d="M281.5 106C279.49 103.02 261.94 111.44 270.34 117.72C277 122.68 283.55 108.94 281.5 106Z" fill="white"/>
<path d="M285.38 54.53C284.34 58.1 302.66 66.49 302.09 55.65C301.63 47.07 286.37 50.96 285.38 54.53Z" fill="white"/>
<path d="M106.16 44.31C105.04 48.17 124.88 57.26 124.26 45.52C123.76 36.23 107.22 40.44 106.16 44.31Z" fill="white"/>
<path d="M177.63 164.07C180.25 161.16 166.12 146.58 161.81 156.82C158.39 164.93 175.06 167.01 177.63 164.07Z" fill="white"/>
<path d="M316.03 113.8C316.37 110.47 300.03 107.32 301.02 115.51C301.95 123.21 315.74 117.13 316.03 113.8Z" fill="white"/>
<path d="M156.73 46.18C160.27 47.65 169.09 30.76 159.79 29.15C151.05 27.64 153.17 44.76 156.73 46.18Z" fill="white"/>
<path d="M133.87 167.24C137.26 168.65 145.68 152.51 136.8 150.97C128.44 149.52 130.47 165.89 133.87 167.24Z" fill="white"/>
<path d="M132.94 33.8099C136.33 35.2199 144.75 19.0799 135.87 17.5399C127.51 16.0899 129.54 32.4599 132.94 33.8099Z" fill="#E7A749"/>
<path d="M220.91 11.11C219.29 14.4 234.88 23.81 236.97 15.04C238.93 6.77998 222.48 7.79999 220.91 11.11Z" fill="#E7A749"/>
<path d="M256.25 136.17C254.63 139.46 270.22 148.87 272.31 140.1C274.27 131.85 257.81 132.86 256.25 136.17Z" fill="#E7A749"/>
<defs>
<linearGradient id="paint0_linear_1_1637" x1="-5.51554" y1="234.853" x2="94.3312" y2="220.292" gradientUnits="userSpaceOnUse">
<stop stop-color="#A3CD39"/>
<stop offset="0.1725" stop-color="#9DC839"/>
<stop offset="0.4124" stop-color="#8BBA3A"/>
<stop offset="0.6917" stop-color="#6DA23B"/>
<stop offset="0.9989" stop-color="#44823D"/>
<stop offset="1" stop-color="#44823D"/>
</linearGradient>
<linearGradient id="paint1_linear_1_1637" x1="46.0296" y1="205.913" x2="194.109" y2="205.913" gradientUnits="userSpaceOnUse">
<stop stop-color="#FFF068"/>
<stop offset="0.4858" stop-color="#D3D753"/>
<stop offset="1" stop-color="#A1BB3A"/>
</linearGradient>
<linearGradient id="paint2_linear_1_1637" x1="308.248" y1="283.121" x2="282.43" y2="184.858" gradientUnits="userSpaceOnUse">
<stop stop-color="#FFF068"/>
<stop offset="0.4858" stop-color="#D3D753"/>
<stop offset="1" stop-color="#A1BB3A"/>
</linearGradient>
<linearGradient id="paint3_linear_1_1637" x1="315.526" y1="302.945" x2="275.846" y2="241.988" gradientUnits="userSpaceOnUse">
<stop stop-color="#A3CD39"/>
<stop offset="0.1725" stop-color="#9DC839"/>
<stop offset="0.4124" stop-color="#8BBA3A"/>
<stop offset="0.6917" stop-color="#6DA23B"/>
<stop offset="0.9989" stop-color="#44823D"/>
<stop offset="1" stop-color="#44823D"/>
</linearGradient>
<linearGradient id="paint4_linear_1_1637" x1="14.4772" y1="178.445" x2="158.743" y2="178.445" gradientUnits="userSpaceOnUse">
<stop offset="0.0245" stop-color="#80AA48"/>
<stop offset="1" stop-color="#697C34"/>
</linearGradient>
<linearGradient id="paint5_linear_1_1637" x1="134.929" y1="218.456" x2="279.239" y2="218.456" gradientUnits="userSpaceOnUse">
<stop offset="0.0245" stop-color="#80AA48"/>
<stop offset="1" stop-color="#697C34"/>
</linearGradient>
<linearGradient id="paint6_linear_1_1637" x1="225.478" y1="155.802" x2="369.786" y2="155.802" gradientUnits="userSpaceOnUse">
<stop offset="0.0245" stop-color="#80AA48"/>
<stop offset="1" stop-color="#697C34"/>
</linearGradient>
<linearGradient id="paint7_linear_1_1637" x1="169.905" y1="-1.16396" x2="207.048" y2="221.689" gradientUnits="userSpaceOnUse">
<stop stop-color="#F0B461"/>
<stop offset="1" stop-color="#CC6B28"/>
</linearGradient>
</defs>
</svg>
