<svg width="230" height="33" viewBox="0 0 230 33" fill="none" xmlns="http://www.w3.org/2000/svg">
<rect x="0.453125" y="14.546" width="4" height="4" rx="2" fill="#C0C0C0"/>
<rect x="7.45312" y="14.546" width="4" height="4" rx="2" fill="#C0C0C0"/>
<rect x="14.4531" y="9.54602" width="4" height="14" rx="2" fill="#C0C0C0"/>
<rect x="21.4531" y="6.54602" width="4" height="20" rx="2" fill="#C0C0C0"/>
<rect x="28.4531" y="6.54602" width="4" height="20" rx="2" fill="#C0C0C0"/>
<rect x="35.4531" y="9.54602" width="4" height="14" rx="2" fill="#C0C0C0"/>
<rect x="42.4531" y="9.54602" width="4" height="14" rx="2" fill="#C0C0C0"/>
<rect x="49.4531" y="12.546" width="4" height="8" rx="2" fill="#C0C0C0"/>
<rect x="56.4531" y="12.546" width="4" height="8" rx="2" fill="#C0C0C0"/>
<rect x="63.4531" y="14.546" width="4" height="4" rx="2" fill="#C0C0C0"/>
<rect x="70.4531" y="6.54602" width="4" height="20" rx="2" fill="#C0C0C0"/>
<rect x="77.4531" y="6.54602" width="4" height="20" rx="2" fill="#C0C0C0"/>
<rect x="84.4531" y="6.54602" width="4" height="20" rx="2" fill="#C0C0C0"/>
<rect x="91.4531" y="7.54602" width="4" height="18" rx="2" fill="#C0C0C0"/>
<rect x="98.4531" y="13.546" width="4" height="6" rx="2" fill="#C0C0C0"/>
<rect x="105.453" y="9.54602" width="4" height="14" rx="2" fill="#C0C0C0"/>
<rect x="112.453" y="6.54602" width="4" height="20" rx="2" fill="#C0C0C0"/>
<rect x="119.453" y="6.54602" width="4" height="20" rx="2" fill="#C0C0C0"/>
<rect x="126.453" y="6.54602" width="4" height="20" rx="2" fill="#C0C0C0"/>
<rect x="133.453" y="6.54602" width="4" height="20" rx="2" fill="#C0C0C0"/>
<rect x="140.453" y="6.54602" width="4" height="20" rx="2" fill="#C0C0C0"/>
<rect x="147.453" y="9.54602" width="4" height="14" rx="2" fill="#C0C0C0"/>
<rect x="154.453" y="12.546" width="4" height="8" rx="2" fill="#C0C0C0"/>
<rect x="161.453" y="14.546" width="4" height="4" rx="2" fill="#C0C0C0"/>
<rect x="168.453" y="14.546" width="4" height="4" rx="2" fill="#C0C0C0"/>
<rect x="175.453" y="12.546" width="4" height="8" rx="2" fill="#C0C0C0"/>
<rect x="182.453" y="13.546" width="4" height="6" rx="2" fill="#C0C0C0"/>
<rect x="189.453" y="12.546" width="4" height="8" rx="2" fill="#C0C0C0"/>
<rect x="196.453" y="9.54602" width="4" height="14" rx="2" fill="#C0C0C0"/>
<rect x="203.453" y="6.54602" width="4" height="20" rx="2" fill="#C0C0C0"/>
<rect x="210.453" y="7.54602" width="4" height="18" rx="2" fill="#C0C0C0"/>
<rect x="217.453" y="6.54602" width="4" height="20" rx="2" fill="#C0C0C0"/>
<rect x="224.453" y="6.54602" width="4" height="20" rx="2" fill="#C0C0C0"/>
</svg>
