<svg width="25" height="24" viewBox="0 0 25 24" fill="none" xmlns="http://www.w3.org/2000/svg">
<rect x="0.292358" y="-0.000976562" width="24" height="24" rx="12" fill="white" fill-opacity="0.6"/>
<path d="M6.95846 11.3314C7.31208 11.3314 7.65122 11.4719 7.90126 11.7219C8.15131 11.972 8.29179 12.3111 8.29179 12.6648V13.3314H16.2918V12.6648C16.2918 12.3111 16.4323 11.972 16.6823 11.7219C16.9324 11.4719 17.2715 11.3314 17.6251 11.3314M6.95846 11.3314C6.60483 11.3314 6.26569 11.4719 6.01565 11.7219C5.7656 11.972 5.62512 12.3111 5.62512 12.6648V15.9981C5.62512 16.1749 5.69536 16.3445 5.82038 16.4695C5.94541 16.5945 6.11498 16.6648 6.29179 16.6648H18.2918C18.4686 16.6648 18.6382 16.5945 18.7632 16.4695C18.8882 16.3445 18.9585 16.1749 18.9585 15.9981V12.6648C18.9585 12.3111 18.818 11.972 18.5679 11.7219C18.3179 11.4719 17.9787 11.3314 17.6251 11.3314M6.95846 11.3314V9.33142C6.95846 8.80099 7.16917 8.29228 7.54424 7.91721C7.91931 7.54213 8.42802 7.33142 8.95846 7.33142H15.6251C16.1556 7.33142 16.6643 7.54213 17.0393 7.91721C17.4144 8.29228 17.6251 8.80099 17.6251 9.33142V11.3314M12.2918 7.33142V13.3314" stroke="#FFA379" stroke-linecap="round" stroke-linejoin="round"/>
</svg>
