<svg width="32" height="32" viewBox="0 0 32 32" fill="none" xmlns="http://www.w3.org/2000/svg">
<rect width="32" height="32" rx="16" fill="#FFA379"/>
<path d="M14.4964 8.22885L23.104 12.5095C26.9653 14.4298 26.9653 17.5702 23.104 19.4905L14.4964 23.7712C8.70435 26.6516 6.34129 24.2912 9.2373 18.5404L10.1121 16.8101C10.3334 16.3701 10.3334 15.6399 10.1121 15.1999L9.2373 13.4596C6.34129 7.70877 8.71441 5.34843 14.4964 8.22885ZM10.4038 16H15.8338H10.4038Z" fill="white"/>
<path d="M10.4038 16H15.8338M14.4964 8.22885L23.104 12.5095C26.9653 14.4298 26.9653 17.5702 23.104 19.4905L14.4964 23.7711C8.70435 26.6516 6.34129 24.2912 9.2373 18.5404L10.1121 16.8101C10.3334 16.3701 10.3334 15.6399 10.1121 15.1999L9.2373 13.4596C6.34129 7.70877 8.71441 5.34843 14.4964 8.22885Z" stroke="#FFA379" stroke-width="1.5" stroke-linecap="round" stroke-linejoin="round"/>
</svg>
